<mxfile host="app.diagrams.net" modified="2024-04-01T09:20:49.185Z" agent="Mozilla/5.0 (Windows NT 10.0; Win64; x64) AppleWebKit/537.36 (KHTML, like Gecko) Chrome/123.0.0.0 Safari/537.36" etag="24oTYKoGtPyXs6QV0rkr" version="24.2.1" type="github" pages="6">
  <diagram name="Page-1" id="DSULxuVV72uZJK-TW61q">
    <mxGraphModel dx="1679" dy="2134" grid="1" gridSize="10" guides="1" tooltips="1" connect="1" arrows="1" fold="1" page="1" pageScale="1" pageWidth="827" pageHeight="1169" math="0" shadow="0">
      <root>
        <mxCell id="0" />
        <mxCell id="1" parent="0" />
        <mxCell id="rIKoTJ0nYEZaXtPjpgZJ-3" value="&lt;font color=&quot;#19498c&quot;&gt;Kubernetes Control Plane&lt;/font&gt;" style="rounded=0;whiteSpace=wrap;html=1;strokeColor=#19498C;strokeWidth=1.5;verticalAlign=top;align=left;spacingLeft=35;fontSize=14;" parent="1" vertex="1">
          <mxGeometry x="40" y="420" width="420" height="360" as="geometry" />
        </mxCell>
        <mxCell id="rIKoTJ0nYEZaXtPjpgZJ-1" value="&lt;font color=&quot;#19498c&quot;&gt;Kubernetes Node&lt;/font&gt;" style="rounded=0;whiteSpace=wrap;html=1;strokeColor=#19498C;strokeWidth=1.5;verticalAlign=top;align=left;spacingLeft=35;fontSize=14;fillColor=none;" parent="1" vertex="1">
          <mxGeometry x="680" y="420" width="420" height="360" as="geometry" />
        </mxCell>
        <mxCell id="rIKoTJ0nYEZaXtPjpgZJ-2" value="&lt;font color=&quot;#19498c&quot;&gt;Container Runtime Interface (CRI)&lt;/font&gt;" style="rounded=0;whiteSpace=wrap;html=1;strokeColor=#19498C;strokeWidth=1.5;verticalAlign=top;align=left;spacingLeft=35;fontSize=14;fillColor=default;" parent="1" vertex="1">
          <mxGeometry x="700.5" y="620" width="379.5" height="140" as="geometry" />
        </mxCell>
        <mxCell id="rIKoTJ0nYEZaXtPjpgZJ-4" value="" style="rounded=0;whiteSpace=wrap;html=1;strokeColor=#19498C;strokeWidth=1.5;fillColor=#19498C;" parent="1" vertex="1">
          <mxGeometry x="40" y="420" width="30" height="30" as="geometry" />
        </mxCell>
        <mxCell id="rIKoTJ0nYEZaXtPjpgZJ-5" value="" style="html=1;verticalLabelPosition=bottom;align=center;labelBackgroundColor=#ffffff;verticalAlign=top;strokeWidth=2;strokeColor=#FFFFFF;shadow=0;dashed=0;shape=mxgraph.ios7.icons.cube;fillColor=none;" parent="1" vertex="1">
          <mxGeometry x="45" y="425" width="20" height="20" as="geometry" />
        </mxCell>
        <mxCell id="rIKoTJ0nYEZaXtPjpgZJ-6" value="" style="rounded=0;whiteSpace=wrap;html=1;strokeColor=#19498C;strokeWidth=1.5;fillColor=#19498C;" parent="1" vertex="1">
          <mxGeometry x="680" y="420" width="30" height="30" as="geometry" />
        </mxCell>
        <mxCell id="rIKoTJ0nYEZaXtPjpgZJ-7" value="&lt;font color=&quot;#19498c&quot;&gt;Agent and Networking&lt;/font&gt;" style="rounded=0;whiteSpace=wrap;html=1;strokeColor=#19498C;strokeWidth=1.5;verticalAlign=top;align=left;spacingLeft=35;fontSize=14;" parent="1" vertex="1">
          <mxGeometry x="700" y="470" width="380" height="130" as="geometry" />
        </mxCell>
        <mxCell id="rIKoTJ0nYEZaXtPjpgZJ-8" value="" style="rounded=0;whiteSpace=wrap;html=1;strokeColor=#19498C;strokeWidth=1.5;fillColor=#19498C;" parent="1" vertex="1">
          <mxGeometry x="700" y="470" width="30" height="30" as="geometry" />
        </mxCell>
        <mxCell id="rIKoTJ0nYEZaXtPjpgZJ-9" value="" style="rounded=0;whiteSpace=wrap;html=1;strokeColor=#19498C;strokeWidth=1.5;fillColor=#19498C;" parent="1" vertex="1">
          <mxGeometry x="700" y="620" width="30" height="30" as="geometry" />
        </mxCell>
        <mxCell id="CVIq9aoL3vnZq6WjKkY_-1" value="Text" style="text;html=1;align=center;verticalAlign=middle;resizable=0;points=[];autosize=1;strokeColor=none;fillColor=none;" parent="1" vertex="1">
          <mxGeometry x="-75" y="-962" width="50" height="30" as="geometry" />
        </mxCell>
        <mxCell id="rIKoTJ0nYEZaXtPjpgZJ-10" value="Components" parent="0" />
        <mxCell id="rIKoTJ0nYEZaXtPjpgZJ-11" value="" style="group" parent="rIKoTJ0nYEZaXtPjpgZJ-10" vertex="1" connectable="0">
          <mxGeometry x="280" y="470" width="160" height="60" as="geometry" />
        </mxCell>
        <mxCell id="rIKoTJ0nYEZaXtPjpgZJ-12" value="&lt;font color=&quot;#19498c&quot;&gt;&lt;b&gt;Cloud&amp;nbsp;&lt;/b&gt;&lt;/font&gt;&lt;div&gt;&lt;font color=&quot;#19498c&quot;&gt;&lt;b&gt;Control Manager&lt;/b&gt;&lt;/font&gt;&lt;/div&gt;" style="rounded=0;whiteSpace=wrap;html=1;strokeWidth=1.5;strokeColor=#2875E2;align=left;spacingLeft=75;" parent="rIKoTJ0nYEZaXtPjpgZJ-11" vertex="1">
          <mxGeometry width="160" height="60" as="geometry" />
        </mxCell>
        <mxCell id="rIKoTJ0nYEZaXtPjpgZJ-13" value="" style="endArrow=none;html=1;rounded=0;strokeWidth=1.5;strokeColor=#2875E2;" parent="rIKoTJ0nYEZaXtPjpgZJ-11" edge="1">
          <mxGeometry width="50" height="50" relative="1" as="geometry">
            <mxPoint x="66" y="12" as="sourcePoint" />
            <mxPoint x="66" y="52" as="targetPoint" />
          </mxGeometry>
        </mxCell>
        <mxCell id="rIKoTJ0nYEZaXtPjpgZJ-14" value="" style="aspect=fixed;sketch=0;html=1;dashed=0;whitespace=wrap;fillColor=#2875E2;strokeColor=#ffffff;points=[[0.005,0.63,0],[0.1,0.2,0],[0.9,0.2,0],[0.5,0,0],[0.995,0.63,0],[0.72,0.99,0],[0.5,1,0],[0.28,0.99,0]];shape=mxgraph.kubernetes.icon2;prIcon=c_c_m" parent="rIKoTJ0nYEZaXtPjpgZJ-11" vertex="1">
          <mxGeometry x="5" y="6" width="50" height="48" as="geometry" />
        </mxCell>
        <mxCell id="rIKoTJ0nYEZaXtPjpgZJ-15" value="" style="group" parent="rIKoTJ0nYEZaXtPjpgZJ-10" vertex="1" connectable="0">
          <mxGeometry x="900" y="520" width="160" height="60" as="geometry" />
        </mxCell>
        <mxCell id="rIKoTJ0nYEZaXtPjpgZJ-16" value="&lt;font color=&quot;#19498c&quot;&gt;&lt;b&gt;Kube Proxy&lt;/b&gt;&lt;/font&gt;" style="rounded=0;whiteSpace=wrap;html=1;strokeWidth=1.5;strokeColor=#2875E2;align=left;spacingLeft=75;" parent="rIKoTJ0nYEZaXtPjpgZJ-15" vertex="1">
          <mxGeometry width="160" height="60" as="geometry" />
        </mxCell>
        <mxCell id="rIKoTJ0nYEZaXtPjpgZJ-17" value="" style="endArrow=none;html=1;rounded=0;strokeWidth=1.5;strokeColor=#2875E2;" parent="rIKoTJ0nYEZaXtPjpgZJ-15" edge="1">
          <mxGeometry width="50" height="50" relative="1" as="geometry">
            <mxPoint x="66" y="12" as="sourcePoint" />
            <mxPoint x="66" y="52" as="targetPoint" />
          </mxGeometry>
        </mxCell>
        <mxCell id="rIKoTJ0nYEZaXtPjpgZJ-18" value="" style="aspect=fixed;sketch=0;html=1;dashed=0;whitespace=wrap;fillColor=#2875E2;strokeColor=#ffffff;points=[[0.005,0.63,0],[0.1,0.2,0],[0.9,0.2,0],[0.5,0,0],[0.995,0.63,0],[0.72,0.99,0],[0.5,1,0],[0.28,0.99,0]];shape=mxgraph.kubernetes.icon2;prIcon=k_proxy;verticalAlign=bottom;spacingBottom=-20;" parent="rIKoTJ0nYEZaXtPjpgZJ-15" vertex="1">
          <mxGeometry x="5" y="6" width="50" height="48" as="geometry" />
        </mxCell>
        <mxCell id="rIKoTJ0nYEZaXtPjpgZJ-19" value="" style="group" parent="rIKoTJ0nYEZaXtPjpgZJ-10" vertex="1" connectable="0">
          <mxGeometry x="280" y="585" width="160" height="60" as="geometry" />
        </mxCell>
        <mxCell id="rIKoTJ0nYEZaXtPjpgZJ-20" value="&lt;font color=&quot;#19498c&quot;&gt;&lt;b&gt;API&lt;/b&gt;&lt;/font&gt;&lt;div&gt;&lt;font color=&quot;#19498c&quot;&gt;&lt;b&gt;Server&lt;/b&gt;&lt;/font&gt;&lt;/div&gt;" style="rounded=0;whiteSpace=wrap;html=1;strokeWidth=1.5;strokeColor=#2875E2;align=left;spacingLeft=75;" parent="rIKoTJ0nYEZaXtPjpgZJ-19" vertex="1">
          <mxGeometry width="160" height="60" as="geometry" />
        </mxCell>
        <mxCell id="rIKoTJ0nYEZaXtPjpgZJ-21" value="" style="endArrow=none;html=1;rounded=0;strokeWidth=1.5;strokeColor=#2875E2;" parent="rIKoTJ0nYEZaXtPjpgZJ-19" edge="1">
          <mxGeometry width="50" height="50" relative="1" as="geometry">
            <mxPoint x="66" y="12" as="sourcePoint" />
            <mxPoint x="66" y="52" as="targetPoint" />
          </mxGeometry>
        </mxCell>
        <mxCell id="rIKoTJ0nYEZaXtPjpgZJ-22" value="" style="aspect=fixed;sketch=0;html=1;dashed=0;whitespace=wrap;fillColor=#2875E2;strokeColor=#ffffff;points=[[0.005,0.63,0],[0.1,0.2,0],[0.9,0.2,0],[0.5,0,0],[0.995,0.63,0],[0.72,0.99,0],[0.5,1,0],[0.28,0.99,0]];shape=mxgraph.kubernetes.icon2;prIcon=c_c_m" parent="rIKoTJ0nYEZaXtPjpgZJ-19" vertex="1">
          <mxGeometry x="5" y="6" width="50" height="48" as="geometry" />
        </mxCell>
        <mxCell id="rIKoTJ0nYEZaXtPjpgZJ-23" style="edgeStyle=orthogonalEdgeStyle;rounded=0;orthogonalLoop=1;jettySize=auto;html=1;startArrow=classic;startFill=1;" parent="rIKoTJ0nYEZaXtPjpgZJ-10" source="rIKoTJ0nYEZaXtPjpgZJ-20" target="rIKoTJ0nYEZaXtPjpgZJ-12" edge="1">
          <mxGeometry relative="1" as="geometry" />
        </mxCell>
        <mxCell id="rIKoTJ0nYEZaXtPjpgZJ-24" value="" style="group" parent="rIKoTJ0nYEZaXtPjpgZJ-10" vertex="1" connectable="0">
          <mxGeometry x="60" y="700" width="160" height="60" as="geometry" />
        </mxCell>
        <mxCell id="rIKoTJ0nYEZaXtPjpgZJ-25" value="&lt;font color=&quot;#19498c&quot;&gt;&lt;b&gt;Scheduler&lt;/b&gt;&lt;/font&gt;" style="rounded=0;whiteSpace=wrap;html=1;strokeWidth=1.5;strokeColor=#2875E2;align=left;spacingLeft=75;" parent="rIKoTJ0nYEZaXtPjpgZJ-24" vertex="1">
          <mxGeometry width="160" height="60" as="geometry" />
        </mxCell>
        <mxCell id="rIKoTJ0nYEZaXtPjpgZJ-26" value="" style="endArrow=none;html=1;rounded=0;strokeWidth=1.5;strokeColor=#2875E2;" parent="rIKoTJ0nYEZaXtPjpgZJ-24" edge="1">
          <mxGeometry width="50" height="50" relative="1" as="geometry">
            <mxPoint x="66" y="12" as="sourcePoint" />
            <mxPoint x="66" y="52" as="targetPoint" />
          </mxGeometry>
        </mxCell>
        <mxCell id="rIKoTJ0nYEZaXtPjpgZJ-27" value="" style="aspect=fixed;sketch=0;html=1;dashed=0;whitespace=wrap;fillColor=#2875E2;strokeColor=#ffffff;points=[[0.005,0.63,0],[0.1,0.2,0],[0.9,0.2,0],[0.5,0,0],[0.995,0.63,0],[0.72,0.99,0],[0.5,1,0],[0.28,0.99,0]];shape=mxgraph.kubernetes.icon2;prIcon=c_c_m" parent="rIKoTJ0nYEZaXtPjpgZJ-24" vertex="1">
          <mxGeometry x="5" y="6" width="50" height="48" as="geometry" />
        </mxCell>
        <mxCell id="rIKoTJ0nYEZaXtPjpgZJ-28" style="edgeStyle=orthogonalEdgeStyle;rounded=0;orthogonalLoop=1;jettySize=auto;html=1;entryX=0;entryY=0.75;entryDx=0;entryDy=0;" parent="rIKoTJ0nYEZaXtPjpgZJ-10" source="rIKoTJ0nYEZaXtPjpgZJ-25" target="rIKoTJ0nYEZaXtPjpgZJ-20" edge="1">
          <mxGeometry relative="1" as="geometry">
            <Array as="points">
              <mxPoint x="160" y="630" />
            </Array>
          </mxGeometry>
        </mxCell>
        <mxCell id="rIKoTJ0nYEZaXtPjpgZJ-29" value="" style="group" parent="rIKoTJ0nYEZaXtPjpgZJ-10" vertex="1" connectable="0">
          <mxGeometry x="720" y="520" width="160" height="60" as="geometry" />
        </mxCell>
        <mxCell id="rIKoTJ0nYEZaXtPjpgZJ-30" value="&lt;font color=&quot;#19498c&quot;&gt;&lt;b&gt;Kubelet&lt;/b&gt;&lt;/font&gt;" style="rounded=0;whiteSpace=wrap;html=1;strokeWidth=1.5;strokeColor=#2875E2;align=left;spacingLeft=75;" parent="rIKoTJ0nYEZaXtPjpgZJ-29" vertex="1">
          <mxGeometry width="160" height="60" as="geometry" />
        </mxCell>
        <mxCell id="rIKoTJ0nYEZaXtPjpgZJ-31" value="" style="endArrow=none;html=1;rounded=0;strokeWidth=1.5;strokeColor=#2875E2;" parent="rIKoTJ0nYEZaXtPjpgZJ-29" edge="1">
          <mxGeometry width="50" height="50" relative="1" as="geometry">
            <mxPoint x="66" y="12" as="sourcePoint" />
            <mxPoint x="66" y="52" as="targetPoint" />
          </mxGeometry>
        </mxCell>
        <mxCell id="rIKoTJ0nYEZaXtPjpgZJ-32" value="" style="aspect=fixed;sketch=0;html=1;dashed=0;whitespace=wrap;fillColor=#2875E2;strokeColor=#ffffff;points=[[0.005,0.63,0],[0.1,0.2,0],[0.9,0.2,0],[0.5,0,0],[0.995,0.63,0],[0.72,0.99,0],[0.5,1,0],[0.28,0.99,0]];shape=mxgraph.kubernetes.icon2;kubernetesLabel=1;prIcon=kubelet" parent="rIKoTJ0nYEZaXtPjpgZJ-29" vertex="1">
          <mxGeometry x="5" y="6" width="50" height="48" as="geometry" />
        </mxCell>
        <mxCell id="rIKoTJ0nYEZaXtPjpgZJ-33" value="" style="group" parent="rIKoTJ0nYEZaXtPjpgZJ-10" vertex="1" connectable="0">
          <mxGeometry x="720" y="680" width="160" height="60" as="geometry" />
        </mxCell>
        <mxCell id="rIKoTJ0nYEZaXtPjpgZJ-34" value="&lt;font color=&quot;#19498c&quot;&gt;&lt;b&gt;Pod&lt;/b&gt;&lt;/font&gt;" style="rounded=0;whiteSpace=wrap;html=1;strokeWidth=1.5;strokeColor=#2875E2;align=left;spacingLeft=75;" parent="rIKoTJ0nYEZaXtPjpgZJ-33" vertex="1">
          <mxGeometry width="160" height="60" as="geometry" />
        </mxCell>
        <mxCell id="rIKoTJ0nYEZaXtPjpgZJ-35" value="" style="endArrow=none;html=1;rounded=0;strokeWidth=1.5;strokeColor=#2875E2;" parent="rIKoTJ0nYEZaXtPjpgZJ-33" edge="1">
          <mxGeometry width="50" height="50" relative="1" as="geometry">
            <mxPoint x="66" y="12" as="sourcePoint" />
            <mxPoint x="66" y="52" as="targetPoint" />
          </mxGeometry>
        </mxCell>
        <mxCell id="rIKoTJ0nYEZaXtPjpgZJ-36" value="" style="aspect=fixed;sketch=0;html=1;dashed=0;whitespace=wrap;fillColor=#2875E2;strokeColor=#ffffff;points=[[0.005,0.63,0],[0.1,0.2,0],[0.9,0.2,0],[0.5,0,0],[0.995,0.63,0],[0.72,0.99,0],[0.5,1,0],[0.28,0.99,0]];shape=mxgraph.kubernetes.icon2;prIcon=pod;spacingBottom=-20;verticalAlign=bottom;" parent="rIKoTJ0nYEZaXtPjpgZJ-33" vertex="1">
          <mxGeometry x="5" y="6" width="50" height="48" as="geometry" />
        </mxCell>
        <mxCell id="rIKoTJ0nYEZaXtPjpgZJ-37" value="" style="group" parent="rIKoTJ0nYEZaXtPjpgZJ-10" vertex="1" connectable="0">
          <mxGeometry x="900" y="680" width="160" height="60" as="geometry" />
        </mxCell>
        <mxCell id="rIKoTJ0nYEZaXtPjpgZJ-38" value="&lt;font color=&quot;#19498c&quot;&gt;&lt;b&gt;Pod&lt;/b&gt;&lt;/font&gt;" style="rounded=0;whiteSpace=wrap;html=1;strokeWidth=1.5;strokeColor=#2875E2;align=left;spacingLeft=75;" parent="rIKoTJ0nYEZaXtPjpgZJ-37" vertex="1">
          <mxGeometry width="160" height="60" as="geometry" />
        </mxCell>
        <mxCell id="rIKoTJ0nYEZaXtPjpgZJ-39" value="" style="endArrow=none;html=1;rounded=0;strokeWidth=1.5;strokeColor=#2875E2;" parent="rIKoTJ0nYEZaXtPjpgZJ-37" edge="1">
          <mxGeometry width="50" height="50" relative="1" as="geometry">
            <mxPoint x="66" y="12" as="sourcePoint" />
            <mxPoint x="66" y="52" as="targetPoint" />
          </mxGeometry>
        </mxCell>
        <mxCell id="rIKoTJ0nYEZaXtPjpgZJ-40" value="" style="aspect=fixed;sketch=0;html=1;dashed=0;whitespace=wrap;fillColor=#2875E2;strokeColor=#ffffff;points=[[0.005,0.63,0],[0.1,0.2,0],[0.9,0.2,0],[0.5,0,0],[0.995,0.63,0],[0.72,0.99,0],[0.5,1,0],[0.28,0.99,0]];shape=mxgraph.kubernetes.icon2;prIcon=pod;spacingBottom=-20;verticalAlign=bottom;" parent="rIKoTJ0nYEZaXtPjpgZJ-37" vertex="1">
          <mxGeometry x="5" y="6" width="50" height="48" as="geometry" />
        </mxCell>
        <mxCell id="rIKoTJ0nYEZaXtPjpgZJ-41" value="Notes" parent="0" />
        <mxCell id="rIKoTJ0nYEZaXtPjpgZJ-42" style="edgeStyle=orthogonalEdgeStyle;rounded=0;orthogonalLoop=1;jettySize=auto;html=1;entryX=0;entryY=0.5;entryDx=0;entryDy=0;" parent="rIKoTJ0nYEZaXtPjpgZJ-41" source="rIKoTJ0nYEZaXtPjpgZJ-43" edge="1">
          <mxGeometry relative="1" as="geometry">
            <mxPoint x="280" y="500" as="targetPoint" />
          </mxGeometry>
        </mxCell>
        <mxCell id="rIKoTJ0nYEZaXtPjpgZJ-43" value="&lt;div style=&quot;font-size: 14px;&quot;&gt;&lt;b style=&quot;&quot;&gt;&lt;font style=&quot;font-size: 14px;&quot;&gt;Cloud Control Manager&lt;br&gt;&lt;br&gt;&lt;/font&gt;&lt;/b&gt;&lt;/div&gt;Allows different cloud providers to implement Kubernetes.&lt;div&gt;&lt;br&gt;&lt;/div&gt;&lt;div&gt;Middleman between API Server commands and Cloud-native logic/operations&lt;/div&gt;" style="shape=note;whiteSpace=wrap;html=1;backgroundOutline=1;darkOpacity=0.05;fillColor=#fff2cc;strokeColor=#d6b656;fontColor=#666600;align=left;" parent="rIKoTJ0nYEZaXtPjpgZJ-41" vertex="1">
          <mxGeometry x="-40" y="225" width="200" height="150" as="geometry" />
        </mxCell>
        <UserObject label="https://kubernetes.io/docs/concepts/architecture/cloud-controller/" link="https://kubernetes.io/docs/concepts/architecture/cloud-controller/" id="rIKoTJ0nYEZaXtPjpgZJ-44">
          <mxCell style="text;whiteSpace=wrap;" parent="rIKoTJ0nYEZaXtPjpgZJ-41" vertex="1">
            <mxGeometry x="360" y="-710" width="380" height="40" as="geometry" />
          </mxCell>
        </UserObject>
        <mxCell id="rIKoTJ0nYEZaXtPjpgZJ-45" value="" style="group" parent="rIKoTJ0nYEZaXtPjpgZJ-41" vertex="1" connectable="0">
          <mxGeometry x="280" y="700" width="160" height="60" as="geometry" />
        </mxCell>
        <mxCell id="rIKoTJ0nYEZaXtPjpgZJ-46" value="&lt;font color=&quot;#19498c&quot;&gt;&lt;b&gt;ETCD&lt;/b&gt;&lt;/font&gt;" style="rounded=0;whiteSpace=wrap;html=1;strokeWidth=1.5;strokeColor=#2875E2;align=left;spacingLeft=75;" parent="rIKoTJ0nYEZaXtPjpgZJ-45" vertex="1">
          <mxGeometry width="160" height="60" as="geometry" />
        </mxCell>
        <mxCell id="rIKoTJ0nYEZaXtPjpgZJ-47" value="" style="endArrow=none;html=1;rounded=0;strokeWidth=1.5;strokeColor=#2875E2;" parent="rIKoTJ0nYEZaXtPjpgZJ-45" edge="1">
          <mxGeometry width="50" height="50" relative="1" as="geometry">
            <mxPoint x="66" y="12" as="sourcePoint" />
            <mxPoint x="66" y="52" as="targetPoint" />
          </mxGeometry>
        </mxCell>
        <mxCell id="rIKoTJ0nYEZaXtPjpgZJ-48" value="" style="aspect=fixed;sketch=0;html=1;dashed=0;whitespace=wrap;fillColor=#2875E2;strokeColor=#ffffff;points=[[0.005,0.63,0],[0.1,0.2,0],[0.9,0.2,0],[0.5,0,0],[0.995,0.63,0],[0.72,0.99,0],[0.5,1,0],[0.28,0.99,0]];shape=mxgraph.kubernetes.icon2;prIcon=etcd;verticalAlign=bottom;spacingBottom=-20;" parent="rIKoTJ0nYEZaXtPjpgZJ-45" vertex="1">
          <mxGeometry x="5" y="6" width="50" height="48" as="geometry" />
        </mxCell>
        <mxCell id="rIKoTJ0nYEZaXtPjpgZJ-49" style="edgeStyle=orthogonalEdgeStyle;rounded=0;orthogonalLoop=1;jettySize=auto;html=1;entryX=0.5;entryY=1;entryDx=0;entryDy=0;" parent="rIKoTJ0nYEZaXtPjpgZJ-41" source="rIKoTJ0nYEZaXtPjpgZJ-46" edge="1">
          <mxGeometry relative="1" as="geometry">
            <mxPoint x="360" y="645" as="targetPoint" />
          </mxGeometry>
        </mxCell>
        <mxCell id="rIKoTJ0nYEZaXtPjpgZJ-50" style="edgeStyle=orthogonalEdgeStyle;rounded=0;orthogonalLoop=1;jettySize=auto;html=1;entryX=0;entryY=0.5;entryDx=0;entryDy=0;" parent="rIKoTJ0nYEZaXtPjpgZJ-41" source="rIKoTJ0nYEZaXtPjpgZJ-51" edge="1">
          <mxGeometry relative="1" as="geometry">
            <mxPoint x="60" y="730" as="targetPoint" />
          </mxGeometry>
        </mxCell>
        <mxCell id="rIKoTJ0nYEZaXtPjpgZJ-51" value="&lt;div style=&quot;font-size: 14px;&quot;&gt;&lt;b style=&quot;&quot;&gt;&lt;font style=&quot;font-size: 14px;&quot;&gt;Scheduler&lt;/font&gt;&lt;/b&gt;&lt;/div&gt;&lt;div style=&quot;font-size: 14px;&quot;&gt;&lt;b style=&quot;&quot;&gt;&lt;font style=&quot;font-size: 14px;&quot;&gt;&lt;br&gt;&lt;/font&gt;&lt;/b&gt;&lt;/div&gt;Selects an optimal node to run newly created or not yet scheduled (unscheduled) pods.&lt;div&gt;&lt;br&gt;&lt;/div&gt;&lt;div&gt;Schedule requirements include collective resource req, hardware/software/policy contraints, affinity/anti-affinity specifications, data locality, inter-workload interface&lt;/div&gt;" style="shape=note;whiteSpace=wrap;html=1;backgroundOutline=1;darkOpacity=0.05;fillColor=#fff2cc;strokeColor=#d6b656;fontColor=#666600;align=left;" parent="rIKoTJ0nYEZaXtPjpgZJ-41" vertex="1">
          <mxGeometry x="-230" y="627.5" width="200" height="205" as="geometry" />
        </mxCell>
        <mxCell id="rIKoTJ0nYEZaXtPjpgZJ-52" value="&lt;div style=&quot;font-size: 14px;&quot;&gt;&lt;b style=&quot;&quot;&gt;&lt;font style=&quot;font-size: 14px;&quot;&gt;etcd&lt;/font&gt;&lt;/b&gt;&lt;/div&gt;&lt;div style=&quot;font-size: 14px;&quot;&gt;&lt;b style=&quot;&quot;&gt;&lt;font style=&quot;font-size: 14px;&quot;&gt;&lt;br&gt;&lt;/font&gt;&lt;/b&gt;&lt;/div&gt;&lt;p style=&quot;box-sizing: border-box; margin-top: 0px; margin-bottom: 1rem; max-width: 80%; font-family: &amp;quot;open sans&amp;quot;, -apple-system, &amp;quot;system-ui&amp;quot;, &amp;quot;segoe ui&amp;quot;, Roboto, &amp;quot;helvetica neue&amp;quot;, Arial, sans-serif, &amp;quot;apple color emoji&amp;quot;, &amp;quot;segoe ui emoji&amp;quot;, &amp;quot;segoe ui symbol&amp;quot;;&quot;&gt;&lt;font style=&quot;font-size: 12px;&quot;&gt;etcd is a consistent and highly-available key value store used as Kubernetes&#39; backing store for all cluster data&lt;/font&gt;&lt;/p&gt;&lt;p style=&quot;box-sizing: border-box; margin-top: 0px; margin-bottom: 1rem; max-width: 80%; color: rgb(34, 34, 34); font-family: &amp;quot;open sans&amp;quot;, -apple-system, &amp;quot;system-ui&amp;quot;, &amp;quot;segoe ui&amp;quot;, Roboto, &amp;quot;helvetica neue&amp;quot;, Arial, sans-serif, &amp;quot;apple color emoji&amp;quot;, &amp;quot;segoe ui emoji&amp;quot;, &amp;quot;segoe ui symbol&amp;quot;; font-size: 16px; background-color: rgb(255, 255, 255);&quot;&gt;&lt;/p&gt;" style="shape=note;whiteSpace=wrap;html=1;backgroundOutline=1;darkOpacity=0.05;fillColor=#fff2cc;strokeColor=#d6b656;fontColor=#666600;align=left;" parent="rIKoTJ0nYEZaXtPjpgZJ-41" vertex="1">
          <mxGeometry x="280" y="800" width="200" height="150" as="geometry" />
        </mxCell>
        <mxCell id="rIKoTJ0nYEZaXtPjpgZJ-53" value="" style="sketch=0;outlineConnect=0;fontColor=#232F3E;gradientColor=none;fillColor=#FFFFFF;strokeColor=none;dashed=0;verticalLabelPosition=bottom;verticalAlign=top;align=center;html=1;fontSize=12;fontStyle=0;aspect=fixed;pointerEvents=1;shape=mxgraph.aws4.instance2;" parent="rIKoTJ0nYEZaXtPjpgZJ-41" vertex="1">
          <mxGeometry x="682" y="422" width="25" height="25" as="geometry" />
        </mxCell>
        <mxCell id="rIKoTJ0nYEZaXtPjpgZJ-54" value="&lt;span style=&quot;color: rgb(32, 33, 36); font-family: &amp;quot;Google Sans&amp;quot;, arial, sans-serif; font-size: 20px; font-style: normal; font-variant-ligatures: normal; font-variant-caps: normal; font-weight: 400; letter-spacing: normal; orphans: 2; text-align: left; text-indent: 0px; text-transform: none; widows: 2; word-spacing: 0px; -webkit-text-stroke-width: 0px; white-space: normal; background-color: rgb(255, 255, 255); text-decoration-thickness: initial; text-decoration-style: initial; text-decoration-color: initial; display: inline !important; float: none;&quot;&gt;The name Kubernetes originates from Greek, meaning helmsman or pilot. K8s as an abbreviation&lt;span&gt;&amp;nbsp;&lt;/span&gt;&lt;/span&gt;&lt;b style=&quot;background-color: rgb(211, 227, 253); color: rgb(4, 12, 40); font-weight: 500; font-family: &amp;quot;Google Sans&amp;quot;, arial, sans-serif; font-size: 20px; font-style: normal; font-variant-ligatures: normal; font-variant-caps: normal; letter-spacing: normal; orphans: 2; text-align: left; text-indent: 0px; text-transform: none; widows: 2; word-spacing: 0px; -webkit-text-stroke-width: 0px; white-space: normal; text-decoration-thickness: initial; text-decoration-style: initial; text-decoration-color: initial;&quot;&gt;results from counting the eight letters between the &quot;K&quot; and the &quot;s&quot;&lt;/b&gt;" style="text;whiteSpace=wrap;html=1;" parent="rIKoTJ0nYEZaXtPjpgZJ-41" vertex="1">
          <mxGeometry x="550" y="-340" width="560" height="100" as="geometry" />
        </mxCell>
        <mxCell id="rIKoTJ0nYEZaXtPjpgZJ-55" value="" style="sketch=0;pointerEvents=1;shadow=0;dashed=0;html=1;aspect=fixed;labelPosition=center;verticalLabelPosition=bottom;verticalAlign=top;align=center;outlineConnect=0;shape=mxgraph.vvd.networks;strokeColor=#FFFFFF;" parent="rIKoTJ0nYEZaXtPjpgZJ-41" vertex="1">
          <mxGeometry x="702" y="476" width="25" height="15.25" as="geometry" />
        </mxCell>
        <mxCell id="rIKoTJ0nYEZaXtPjpgZJ-56" style="edgeStyle=orthogonalEdgeStyle;rounded=0;orthogonalLoop=1;jettySize=auto;html=1;exitX=0.5;exitY=1;exitDx=0;exitDy=0;" parent="rIKoTJ0nYEZaXtPjpgZJ-41" edge="1">
          <mxGeometry relative="1" as="geometry">
            <mxPoint x="800" y="680" as="targetPoint" />
            <Array as="points">
              <mxPoint x="890" y="660" />
              <mxPoint x="800" y="660" />
            </Array>
            <mxPoint x="890" y="600" as="sourcePoint" />
          </mxGeometry>
        </mxCell>
        <mxCell id="rIKoTJ0nYEZaXtPjpgZJ-57" style="edgeStyle=orthogonalEdgeStyle;rounded=0;orthogonalLoop=1;jettySize=auto;html=1;entryX=0.5;entryY=0;entryDx=0;entryDy=0;" parent="rIKoTJ0nYEZaXtPjpgZJ-41" edge="1">
          <mxGeometry relative="1" as="geometry">
            <Array as="points">
              <mxPoint x="890" y="660" />
              <mxPoint x="980" y="660" />
            </Array>
            <mxPoint x="890" y="600" as="sourcePoint" />
            <mxPoint x="980" y="680" as="targetPoint" />
          </mxGeometry>
        </mxCell>
        <mxCell id="rIKoTJ0nYEZaXtPjpgZJ-58" value="" style="outlineConnect=0;dashed=0;verticalLabelPosition=bottom;verticalAlign=top;align=center;html=1;shape=mxgraph.aws3.ec2_compute_container;fillColor=#19498C;gradientColor=none;strokeColor=#FFFFFF;strokeWidth=6;" parent="rIKoTJ0nYEZaXtPjpgZJ-41" vertex="1">
          <mxGeometry x="702" y="628" width="25.22" height="14.5" as="geometry" />
        </mxCell>
        <mxCell id="rIKoTJ0nYEZaXtPjpgZJ-59" value="&lt;div style=&quot;font-size: 14px;&quot;&gt;&lt;b style=&quot;&quot;&gt;&lt;font style=&quot;font-size: 14px;&quot;&gt;Container Runtime Interface&lt;/font&gt;&lt;/b&gt;&lt;/div&gt;&lt;div style=&quot;font-size: 14px;&quot;&gt;&lt;b style=&quot;&quot;&gt;&lt;font style=&quot;font-size: 14px;&quot;&gt;&lt;br&gt;&lt;/font&gt;&lt;/b&gt;&lt;/div&gt;&lt;p style=&quot;box-sizing: border-box; margin-top: 0px; margin-bottom: 1rem; max-width: 80%; font-family: &amp;quot;open sans&amp;quot;, -apple-system, &amp;quot;system-ui&amp;quot;, &amp;quot;segoe ui&amp;quot;, Roboto, &amp;quot;helvetica neue&amp;quot;, Arial, sans-serif, &amp;quot;apple color emoji&amp;quot;, &amp;quot;segoe ui emoji&amp;quot;, &amp;quot;segoe ui symbol&amp;quot;;&quot;&gt;Main protocol for the communciation between kubelet and Container Runtime&lt;/p&gt;&lt;p style=&quot;box-sizing: border-box; margin-top: 0px; margin-bottom: 1rem; max-width: 80%; color: rgb(34, 34, 34); font-family: &amp;quot;open sans&amp;quot;, -apple-system, &amp;quot;system-ui&amp;quot;, &amp;quot;segoe ui&amp;quot;, Roboto, &amp;quot;helvetica neue&amp;quot;, Arial, sans-serif, &amp;quot;apple color emoji&amp;quot;, &amp;quot;segoe ui emoji&amp;quot;, &amp;quot;segoe ui symbol&amp;quot;; font-size: 16px; background-color: rgb(255, 255, 255);&quot;&gt;&lt;/p&gt;" style="shape=note;whiteSpace=wrap;html=1;backgroundOutline=1;darkOpacity=0.05;fillColor=#fff2cc;strokeColor=#d6b656;fontColor=#666600;align=left;" parent="rIKoTJ0nYEZaXtPjpgZJ-41" vertex="1">
          <mxGeometry x="1180" y="620" width="200" height="150" as="geometry" />
        </mxCell>
        <mxCell id="rIKoTJ0nYEZaXtPjpgZJ-60" value="&lt;div style=&quot;font-size: 14px;&quot;&gt;&lt;b&gt;Kube Proxy&lt;/b&gt;&lt;/div&gt;&lt;p style=&quot;box-sizing: border-box; margin-top: 0px; margin-bottom: 1rem; max-width: 80%; font-family: &amp;quot;open sans&amp;quot;, -apple-system, &amp;quot;system-ui&amp;quot;, &amp;quot;segoe ui&amp;quot;, Roboto, &amp;quot;helvetica neue&amp;quot;, Arial, sans-serif, &amp;quot;apple color emoji&amp;quot;, &amp;quot;segoe ui emoji&amp;quot;, &amp;quot;segoe ui symbol&amp;quot;;&quot;&gt;Manages Kube network routing and forwarding&amp;nbsp;&lt;/p&gt;&lt;p style=&quot;box-sizing: border-box; margin-top: 0px; margin-bottom: 1rem; max-width: 80%; color: rgb(34, 34, 34); font-family: &amp;quot;open sans&amp;quot;, -apple-system, &amp;quot;system-ui&amp;quot;, &amp;quot;segoe ui&amp;quot;, Roboto, &amp;quot;helvetica neue&amp;quot;, Arial, sans-serif, &amp;quot;apple color emoji&amp;quot;, &amp;quot;segoe ui emoji&amp;quot;, &amp;quot;segoe ui symbol&amp;quot;; font-size: 16px; background-color: rgb(255, 255, 255);&quot;&gt;&lt;/p&gt;" style="shape=note;whiteSpace=wrap;html=1;backgroundOutline=1;darkOpacity=0.05;fillColor=#fff2cc;strokeColor=#d6b656;fontColor=#666600;align=left;" parent="rIKoTJ0nYEZaXtPjpgZJ-41" vertex="1">
          <mxGeometry x="1180" y="430" width="200" height="150" as="geometry" />
        </mxCell>
        <mxCell id="rIKoTJ0nYEZaXtPjpgZJ-61" style="edgeStyle=orthogonalEdgeStyle;rounded=0;orthogonalLoop=1;jettySize=auto;html=1;entryX=1;entryY=0.5;entryDx=0;entryDy=0;" parent="rIKoTJ0nYEZaXtPjpgZJ-41" edge="1">
          <mxGeometry relative="1" as="geometry">
            <mxPoint x="700" y="535" as="sourcePoint" />
            <mxPoint x="440" y="615" as="targetPoint" />
          </mxGeometry>
        </mxCell>
        <mxCell id="rIKoTJ0nYEZaXtPjpgZJ-62" value="" style="group" parent="rIKoTJ0nYEZaXtPjpgZJ-41" vertex="1" connectable="0">
          <mxGeometry x="60" y="525" width="160" height="60" as="geometry" />
        </mxCell>
        <mxCell id="rIKoTJ0nYEZaXtPjpgZJ-63" value="&lt;font color=&quot;#19498c&quot;&gt;&lt;b&gt;Controller Manager&lt;/b&gt;&lt;/font&gt;" style="rounded=0;whiteSpace=wrap;html=1;strokeWidth=1.5;strokeColor=#2875E2;align=left;spacingLeft=75;" parent="rIKoTJ0nYEZaXtPjpgZJ-62" vertex="1">
          <mxGeometry width="160" height="60" as="geometry" />
        </mxCell>
        <mxCell id="rIKoTJ0nYEZaXtPjpgZJ-64" value="" style="endArrow=none;html=1;rounded=0;strokeWidth=1.5;strokeColor=#2875E2;" parent="rIKoTJ0nYEZaXtPjpgZJ-62" edge="1">
          <mxGeometry width="50" height="50" relative="1" as="geometry">
            <mxPoint x="66" y="12" as="sourcePoint" />
            <mxPoint x="66" y="52" as="targetPoint" />
          </mxGeometry>
        </mxCell>
        <mxCell id="rIKoTJ0nYEZaXtPjpgZJ-65" value="" style="aspect=fixed;sketch=0;html=1;dashed=0;whitespace=wrap;fillColor=#2875E2;strokeColor=#ffffff;points=[[0.005,0.63,0],[0.1,0.2,0],[0.9,0.2,0],[0.5,0,0],[0.995,0.63,0],[0.72,0.99,0],[0.5,1,0],[0.28,0.99,0]];shape=mxgraph.kubernetes.icon2;prIcon=cm;spacingBottom=-20;verticalAlign=bottom;" parent="rIKoTJ0nYEZaXtPjpgZJ-62" vertex="1">
          <mxGeometry x="5" y="6" width="50" height="48" as="geometry" />
        </mxCell>
        <mxCell id="rIKoTJ0nYEZaXtPjpgZJ-66" style="edgeStyle=orthogonalEdgeStyle;rounded=0;orthogonalLoop=1;jettySize=auto;html=1;entryX=0;entryY=0.25;entryDx=0;entryDy=0;" parent="rIKoTJ0nYEZaXtPjpgZJ-41" source="rIKoTJ0nYEZaXtPjpgZJ-63" edge="1">
          <mxGeometry relative="1" as="geometry">
            <mxPoint x="280" y="600" as="targetPoint" />
          </mxGeometry>
        </mxCell>
        <mxCell id="rIKoTJ0nYEZaXtPjpgZJ-67" value="&lt;div style=&quot;font-size: 14px;&quot;&gt;&lt;b style=&quot;&quot;&gt;&lt;font style=&quot;font-size: 14px;&quot;&gt;Controller Manager&lt;br&gt;&lt;br&gt;&lt;/font&gt;&lt;/b&gt;&lt;/div&gt;daemon which embeds the core control loops shipped with Kubernetes, watches the shared state of the cluster through the apiserver - make changes to move current state to desired state" style="shape=note;whiteSpace=wrap;html=1;backgroundOutline=1;darkOpacity=0.05;fillColor=#fff2cc;strokeColor=#d6b656;fontColor=#666600;align=left;" parent="rIKoTJ0nYEZaXtPjpgZJ-41" vertex="1">
          <mxGeometry x="-300" y="390" width="200" height="150" as="geometry" />
        </mxCell>
        <mxCell id="rIKoTJ0nYEZaXtPjpgZJ-68" value="&lt;div style=&quot;font-size: 14px;&quot;&gt;&lt;b style=&quot;&quot;&gt;&lt;font style=&quot;font-size: 14px;&quot;&gt;Control Plane&lt;/font&gt;&lt;/b&gt;&lt;/div&gt;&lt;div style=&quot;font-size: 14px;&quot;&gt;&lt;b style=&quot;&quot;&gt;&lt;font style=&quot;font-size: 14px;&quot;&gt;&lt;br&gt;&lt;/font&gt;&lt;/b&gt;&lt;/div&gt;Each K8s cluster has one. It manages the worker nodes and pods in the cluster." style="shape=note;whiteSpace=wrap;html=1;backgroundOutline=1;darkOpacity=0.05;fillColor=#fff2cc;strokeColor=#d6b656;fontColor=#666600;align=left;" parent="rIKoTJ0nYEZaXtPjpgZJ-41" vertex="1">
          <mxGeometry x="260" y="250" width="200" height="150" as="geometry" />
        </mxCell>
        <mxCell id="rIKoTJ0nYEZaXtPjpgZJ-69" value="&lt;div style=&quot;font-size: 14px;&quot;&gt;&lt;b&gt;API Server&lt;/b&gt;&lt;/div&gt;&lt;div style=&quot;font-size: 14px;&quot;&gt;&lt;b style=&quot;&quot;&gt;&lt;font style=&quot;font-size: 14px;&quot;&gt;&lt;br&gt;&lt;/font&gt;&lt;/b&gt;&lt;/div&gt;The front end of the Kubernetes control plane. - scales horizontally.&lt;div&gt;&lt;br&gt;&lt;/div&gt;&lt;div&gt;All communication is done via the API server between worker nodes and control plane and cloud control manager.&lt;/div&gt;" style="shape=note;whiteSpace=wrap;html=1;backgroundOutline=1;darkOpacity=0.05;fillColor=#fff2cc;strokeColor=#d6b656;fontColor=#666600;align=left;" parent="rIKoTJ0nYEZaXtPjpgZJ-41" vertex="1">
          <mxGeometry x="470" y="628" width="200" height="150" as="geometry" />
        </mxCell>
        <mxCell id="rIKoTJ0nYEZaXtPjpgZJ-70" value="&lt;div style=&quot;font-size: 14px;&quot;&gt;&lt;b style=&quot;background-color: initial;&quot;&gt;Pods&lt;/b&gt;&lt;br&gt;&lt;/div&gt;&lt;div style=&quot;font-size: 14px;&quot;&gt;&lt;b&gt;&lt;br&gt;&lt;/b&gt;&lt;/div&gt;&lt;p style=&quot;box-sizing: border-box; margin-top: 0px; margin-bottom: 1rem; max-width: 80%; font-family: &amp;quot;open sans&amp;quot;, -apple-system, &amp;quot;system-ui&amp;quot;, &amp;quot;segoe ui&amp;quot;, Roboto, &amp;quot;helvetica neue&amp;quot;, Arial, sans-serif, &amp;quot;apple color emoji&amp;quot;, &amp;quot;segoe ui emoji&amp;quot;, &amp;quot;segoe ui symbol&amp;quot;;&quot;&gt;Smallest deployable units of computing - a group of one or more containers with shared storage, network resources and specifications for how to run the containers.&lt;/p&gt;&lt;p style=&quot;box-sizing: border-box; margin-top: 0px; margin-bottom: 1rem; max-width: 80%; color: rgb(34, 34, 34); font-family: &amp;quot;open sans&amp;quot;, -apple-system, &amp;quot;system-ui&amp;quot;, &amp;quot;segoe ui&amp;quot;, Roboto, &amp;quot;helvetica neue&amp;quot;, Arial, sans-serif, &amp;quot;apple color emoji&amp;quot;, &amp;quot;segoe ui emoji&amp;quot;, &amp;quot;segoe ui symbol&amp;quot;; font-size: 16px; background-color: rgb(255, 255, 255);&quot;&gt;&lt;/p&gt;" style="shape=note;whiteSpace=wrap;html=1;backgroundOutline=1;darkOpacity=0.05;fillColor=#fff2cc;strokeColor=#d6b656;fontColor=#666600;align=left;" parent="rIKoTJ0nYEZaXtPjpgZJ-41" vertex="1">
          <mxGeometry x="910" y="820" width="200" height="180" as="geometry" />
        </mxCell>
        <mxCell id="rIKoTJ0nYEZaXtPjpgZJ-71" value="&lt;div style=&quot;font-size: 14px;&quot;&gt;&lt;b&gt;Kubelet&lt;/b&gt;&lt;/div&gt;&lt;p style=&quot;box-sizing: border-box; margin-top: 0px; margin-bottom: 1rem; max-width: 80%; font-family: &amp;quot;open sans&amp;quot;, -apple-system, &amp;quot;system-ui&amp;quot;, &amp;quot;segoe ui&amp;quot;, Roboto, &amp;quot;helvetica neue&amp;quot;, Arial, sans-serif, &amp;quot;apple color emoji&amp;quot;, &amp;quot;segoe ui emoji&amp;quot;, &amp;quot;segoe ui symbol&amp;quot;;&quot;&gt;&lt;br&gt;&lt;/p&gt;&lt;p style=&quot;box-sizing: border-box; margin-top: 0px; margin-bottom: 1rem; max-width: 80%; font-family: &amp;quot;open sans&amp;quot;, -apple-system, &amp;quot;system-ui&amp;quot;, &amp;quot;segoe ui&amp;quot;, Roboto, &amp;quot;helvetica neue&amp;quot;, Arial, sans-serif, &amp;quot;apple color emoji&amp;quot;, &amp;quot;segoe ui emoji&amp;quot;, &amp;quot;segoe ui symbol&amp;quot;;&quot;&gt;An agent for managing the node and communicating with the Kubernetes control plane.&lt;/p&gt;&lt;p style=&quot;box-sizing: border-box; margin-top: 0px; margin-bottom: 1rem; max-width: 80%; color: rgb(34, 34, 34); font-family: &amp;quot;open sans&amp;quot;, -apple-system, &amp;quot;system-ui&amp;quot;, &amp;quot;segoe ui&amp;quot;, Roboto, &amp;quot;helvetica neue&amp;quot;, Arial, sans-serif, &amp;quot;apple color emoji&amp;quot;, &amp;quot;segoe ui emoji&amp;quot;, &amp;quot;segoe ui symbol&amp;quot;; font-size: 16px; background-color: rgb(255, 255, 255);&quot;&gt;&lt;/p&gt;" style="shape=note;whiteSpace=wrap;html=1;backgroundOutline=1;darkOpacity=0.05;fillColor=#fff2cc;strokeColor=#d6b656;fontColor=#666600;align=left;" parent="rIKoTJ0nYEZaXtPjpgZJ-41" vertex="1">
          <mxGeometry x="720" y="160" width="200" height="150" as="geometry" />
        </mxCell>
        <mxCell id="rIKoTJ0nYEZaXtPjpgZJ-72" value="&lt;div style=&quot;font-size: 14px;&quot;&gt;&lt;b&gt;Other Notes&lt;/b&gt;&lt;/div&gt;&lt;div style=&quot;font-size: 14px;&quot;&gt;&lt;b&gt;&lt;br&gt;&lt;/b&gt;&lt;/div&gt;&lt;p style=&quot;box-sizing: border-box; margin-top: 0px; margin-bottom: 1rem; max-width: 80%; font-family: &amp;quot;open sans&amp;quot;, -apple-system, &amp;quot;system-ui&amp;quot;, &amp;quot;segoe ui&amp;quot;, Roboto, &amp;quot;helvetica neue&amp;quot;, Arial, sans-serif, &amp;quot;apple color emoji&amp;quot;, &amp;quot;segoe ui emoji&amp;quot;, &amp;quot;segoe ui symbol&amp;quot;;&quot;&gt;1. Prod workloads should have a min of 3 nodes. If one goes down, an &lt;font color=&quot;#ff3333&quot;&gt;etcd member&lt;/font&gt; and &lt;font color=&quot;#ff3333&quot;&gt;control plane&lt;/font&gt; instance are lost, redundancy is compromised.&lt;/p&gt;&lt;p style=&quot;box-sizing: border-box; margin-top: 0px; margin-bottom: 1rem; max-width: 80%; font-family: &amp;quot;open sans&amp;quot;, -apple-system, &amp;quot;system-ui&amp;quot;, &amp;quot;segoe ui&amp;quot;, Roboto, &amp;quot;helvetica neue&amp;quot;, Arial, sans-serif, &amp;quot;apple color emoji&amp;quot;, &amp;quot;segoe ui emoji&amp;quot;, &amp;quot;segoe ui symbol&amp;quot;;&quot;&gt;2. There are different container runtime interfaces such as CRI-O and containerd - How are they implemented?&lt;/p&gt;&lt;p style=&quot;box-sizing: border-box; margin-top: 0px; margin-bottom: 1rem; max-width: 80%; color: rgb(34, 34, 34); font-family: &amp;quot;open sans&amp;quot;, -apple-system, &amp;quot;system-ui&amp;quot;, &amp;quot;segoe ui&amp;quot;, Roboto, &amp;quot;helvetica neue&amp;quot;, Arial, sans-serif, &amp;quot;apple color emoji&amp;quot;, &amp;quot;segoe ui emoji&amp;quot;, &amp;quot;segoe ui symbol&amp;quot;; font-size: 16px; background-color: rgb(255, 255, 255);&quot;&gt;&lt;/p&gt;" style="shape=note;whiteSpace=wrap;html=1;backgroundOutline=1;darkOpacity=0.05;fillColor=#fff2cc;strokeColor=#d6b656;fontColor=#666600;align=left;" parent="rIKoTJ0nYEZaXtPjpgZJ-41" vertex="1">
          <mxGeometry x="1220" y="80" width="420" height="190" as="geometry" />
        </mxCell>
      </root>
    </mxGraphModel>
  </diagram>
  <diagram id="WMnXTvJtiaR5kkUUwBvJ" name="Page-2">
    <mxGraphModel dx="852" dy="965" grid="1" gridSize="10" guides="1" tooltips="1" connect="1" arrows="1" fold="1" page="1" pageScale="1" pageWidth="827" pageHeight="1169" math="0" shadow="0">
      <root>
        <mxCell id="0" />
        <mxCell id="1" parent="0" />
        <mxCell id="0y-Ugk34CN4X4bvtcnJf-1" value="" style="group" parent="1" vertex="1" connectable="0">
          <mxGeometry x="120" y="480" width="160" height="60" as="geometry" />
        </mxCell>
        <mxCell id="0y-Ugk34CN4X4bvtcnJf-2" value="&lt;font color=&quot;#19498c&quot;&gt;&lt;b&gt;Virtual Machine&lt;/b&gt;&lt;/font&gt;" style="rounded=0;whiteSpace=wrap;html=1;strokeWidth=1.5;strokeColor=#2875E2;align=left;spacingLeft=75;" parent="0y-Ugk34CN4X4bvtcnJf-1" vertex="1">
          <mxGeometry width="160" height="60" as="geometry" />
        </mxCell>
        <mxCell id="0y-Ugk34CN4X4bvtcnJf-3" value="" style="endArrow=none;html=1;rounded=0;strokeWidth=1.5;strokeColor=#2875E2;" parent="0y-Ugk34CN4X4bvtcnJf-1" edge="1">
          <mxGeometry width="50" height="50" relative="1" as="geometry">
            <mxPoint x="66" y="12" as="sourcePoint" />
            <mxPoint x="66" y="52" as="targetPoint" />
          </mxGeometry>
        </mxCell>
        <mxCell id="0y-Ugk34CN4X4bvtcnJf-4" value="" style="image;sketch=0;aspect=fixed;html=1;points=[];align=center;fontSize=12;image=img/lib/mscae/Virtual_Machine.svg;" parent="0y-Ugk34CN4X4bvtcnJf-1" vertex="1">
          <mxGeometry x="14" y="12.5" width="38.05" height="35" as="geometry" />
        </mxCell>
        <mxCell id="0y-Ugk34CN4X4bvtcnJf-5" value="&lt;font&gt;kubebtl installed&lt;/font&gt;" style="rounded=0;whiteSpace=wrap;html=1;strokeColor=#2875E2;fillColor=#2875E2;strokeWidth=1.5;fontColor=#FFFFFF;" parent="1" vertex="1">
          <mxGeometry x="120" y="460" width="160" height="20" as="geometry" />
        </mxCell>
        <mxCell id="0y-Ugk34CN4X4bvtcnJf-6" value="manifest.yaml" style="verticalLabelPosition=bottom;html=1;verticalAlign=top;strokeWidth=1;align=center;outlineConnect=0;dashed=0;outlineConnect=0;shape=mxgraph.aws3d.file;aspect=fixed;strokeColor=#2875E2;fontColor=#19498C;" parent="1" vertex="1">
          <mxGeometry x="360" y="210" width="30.8" height="70.6" as="geometry" />
        </mxCell>
        <mxCell id="0y-Ugk34CN4X4bvtcnJf-7" value="&lt;div style=&quot;font-size: 14px;&quot;&gt;&lt;b&gt;Manifest.yaml&lt;/b&gt;&lt;/div&gt;&lt;div style=&quot;font-size: 14px;&quot;&gt;&lt;b&gt;&lt;br&gt;&lt;/b&gt;&lt;/div&gt;&lt;p style=&quot;box-sizing: border-box; margin-top: 0px; margin-bottom: 1rem; max-width: 80%; font-family: &amp;quot;open sans&amp;quot;, -apple-system, &amp;quot;system-ui&amp;quot;, &amp;quot;segoe ui&amp;quot;, Roboto, &amp;quot;helvetica neue&amp;quot;, Arial, sans-serif, &amp;quot;apple color emoji&amp;quot;, &amp;quot;segoe ui emoji&amp;quot;, &amp;quot;segoe ui symbol&amp;quot;;&quot;&gt;&lt;span style=&quot;font-family: Helvetica;&quot;&gt;Describe the desired state of Kube API objects within the cluster.&lt;/span&gt;&lt;/p&gt;&lt;div style=&quot;&quot;&gt;Can be broken down into 3 parts:&lt;/div&gt;&lt;div style=&quot;&quot;&gt;&lt;b&gt;metadata, spec, status&lt;/b&gt;&lt;/div&gt;&lt;div style=&quot;&quot;&gt;&lt;b&gt;&lt;br&gt;&lt;/b&gt;&lt;/div&gt;&lt;div style=&quot;&quot;&gt;&lt;b&gt;Metadata&lt;/b&gt;&amp;nbsp;- Essential info like name and namespace of objects.&lt;/div&gt;&lt;div style=&quot;&quot;&gt;&lt;b&gt;Spec &lt;/b&gt;- outlines the desired state for the object&lt;/div&gt;&lt;div style=&quot;&quot;&gt;&lt;b&gt;Status&lt;/b&gt;&amp;nbsp;- not usually included in created manifest files, but managed by Kube system to reflect the current state of resources.&lt;/div&gt;&lt;p style=&quot;box-sizing: border-box; margin-top: 0px; margin-bottom: 1rem; max-width: 80%; color: rgb(34, 34, 34); font-family: &amp;quot;open sans&amp;quot;, -apple-system, &amp;quot;system-ui&amp;quot;, &amp;quot;segoe ui&amp;quot;, Roboto, &amp;quot;helvetica neue&amp;quot;, Arial, sans-serif, &amp;quot;apple color emoji&amp;quot;, &amp;quot;segoe ui emoji&amp;quot;, &amp;quot;segoe ui symbol&amp;quot;; font-size: 16px; background-color: rgb(255, 255, 255);&quot;&gt;&lt;/p&gt;" style="shape=note;whiteSpace=wrap;html=1;backgroundOutline=1;darkOpacity=0.05;fillColor=#fff2cc;strokeColor=#d6b656;fontColor=#666600;align=left;" parent="1" vertex="1">
          <mxGeometry x="280" y="600" width="240" height="250" as="geometry" />
        </mxCell>
        <mxCell id="0y-Ugk34CN4X4bvtcnJf-8" value="&lt;font color=&quot;#19498c&quot;&gt;Kubernetes Control Plane&lt;/font&gt;" style="rounded=0;whiteSpace=wrap;html=1;strokeColor=#19498C;strokeWidth=1.5;verticalAlign=top;align=left;spacingLeft=35;fontSize=14;fillColor=none;" parent="1" vertex="1">
          <mxGeometry x="600" y="400" width="380" height="340" as="geometry" />
        </mxCell>
        <mxCell id="0y-Ugk34CN4X4bvtcnJf-9" value="" style="rounded=0;whiteSpace=wrap;html=1;strokeColor=#19498C;strokeWidth=1.5;fillColor=#19498C;" parent="1" vertex="1">
          <mxGeometry x="600" y="400" width="30" height="30" as="geometry" />
        </mxCell>
        <mxCell id="0y-Ugk34CN4X4bvtcnJf-10" value="" style="html=1;verticalLabelPosition=bottom;align=center;labelBackgroundColor=#ffffff;verticalAlign=top;strokeWidth=2;strokeColor=#FFFFFF;shadow=0;dashed=0;shape=mxgraph.ios7.icons.cube;fillColor=none;" parent="1" vertex="1">
          <mxGeometry x="605" y="405" width="20" height="20" as="geometry" />
        </mxCell>
        <mxCell id="0y-Ugk34CN4X4bvtcnJf-11" value="" style="group" parent="1" vertex="1" connectable="0">
          <mxGeometry x="620" y="450" width="160" height="60" as="geometry" />
        </mxCell>
        <mxCell id="0y-Ugk34CN4X4bvtcnJf-12" value="&lt;font color=&quot;#19498c&quot;&gt;&lt;b&gt;Cloud&amp;nbsp;&lt;/b&gt;&lt;/font&gt;&lt;div&gt;&lt;font color=&quot;#19498c&quot;&gt;&lt;b&gt;Control Manager&lt;/b&gt;&lt;/font&gt;&lt;/div&gt;" style="rounded=0;whiteSpace=wrap;html=1;strokeWidth=1.5;strokeColor=#2875E2;align=left;spacingLeft=75;" parent="0y-Ugk34CN4X4bvtcnJf-11" vertex="1">
          <mxGeometry width="160" height="60" as="geometry" />
        </mxCell>
        <mxCell id="0y-Ugk34CN4X4bvtcnJf-13" value="" style="endArrow=none;html=1;rounded=0;strokeWidth=1.5;strokeColor=#2875E2;" parent="0y-Ugk34CN4X4bvtcnJf-11" edge="1">
          <mxGeometry width="50" height="50" relative="1" as="geometry">
            <mxPoint x="66" y="12" as="sourcePoint" />
            <mxPoint x="66" y="52" as="targetPoint" />
          </mxGeometry>
        </mxCell>
        <mxCell id="0y-Ugk34CN4X4bvtcnJf-14" value="" style="aspect=fixed;sketch=0;html=1;dashed=0;whitespace=wrap;fillColor=#2875E2;strokeColor=#ffffff;points=[[0.005,0.63,0],[0.1,0.2,0],[0.9,0.2,0],[0.5,0,0],[0.995,0.63,0],[0.72,0.99,0],[0.5,1,0],[0.28,0.99,0]];shape=mxgraph.kubernetes.icon2;prIcon=c_c_m" parent="0y-Ugk34CN4X4bvtcnJf-11" vertex="1">
          <mxGeometry x="5" y="6" width="50" height="48" as="geometry" />
        </mxCell>
        <mxCell id="0y-Ugk34CN4X4bvtcnJf-15" value="" style="group" parent="1" vertex="1" connectable="0">
          <mxGeometry x="620" y="555" width="160" height="60" as="geometry" />
        </mxCell>
        <mxCell id="0y-Ugk34CN4X4bvtcnJf-16" value="&lt;font color=&quot;#19498c&quot;&gt;&lt;b&gt;API&lt;/b&gt;&lt;/font&gt;&lt;div&gt;&lt;font color=&quot;#19498c&quot;&gt;&lt;b&gt;Server&lt;/b&gt;&lt;/font&gt;&lt;/div&gt;" style="rounded=0;whiteSpace=wrap;html=1;strokeWidth=1.5;strokeColor=#2875E2;align=left;spacingLeft=75;" parent="0y-Ugk34CN4X4bvtcnJf-15" vertex="1">
          <mxGeometry width="160" height="60" as="geometry" />
        </mxCell>
        <mxCell id="0y-Ugk34CN4X4bvtcnJf-17" value="" style="endArrow=none;html=1;rounded=0;strokeWidth=1.5;strokeColor=#2875E2;" parent="0y-Ugk34CN4X4bvtcnJf-15" edge="1">
          <mxGeometry width="50" height="50" relative="1" as="geometry">
            <mxPoint x="66" y="12" as="sourcePoint" />
            <mxPoint x="66" y="52" as="targetPoint" />
          </mxGeometry>
        </mxCell>
        <mxCell id="0y-Ugk34CN4X4bvtcnJf-18" value="" style="aspect=fixed;sketch=0;html=1;dashed=0;whitespace=wrap;fillColor=#2875E2;strokeColor=#ffffff;points=[[0.005,0.63,0],[0.1,0.2,0],[0.9,0.2,0],[0.5,0,0],[0.995,0.63,0],[0.72,0.99,0],[0.5,1,0],[0.28,0.99,0]];shape=mxgraph.kubernetes.icon2;prIcon=c_c_m" parent="0y-Ugk34CN4X4bvtcnJf-15" vertex="1">
          <mxGeometry x="5" y="6" width="50" height="48" as="geometry" />
        </mxCell>
        <mxCell id="0y-Ugk34CN4X4bvtcnJf-19" style="edgeStyle=orthogonalEdgeStyle;rounded=0;orthogonalLoop=1;jettySize=auto;html=1;startArrow=classic;startFill=1;" parent="1" source="0y-Ugk34CN4X4bvtcnJf-16" target="0y-Ugk34CN4X4bvtcnJf-12" edge="1">
          <mxGeometry relative="1" as="geometry" />
        </mxCell>
        <mxCell id="0y-Ugk34CN4X4bvtcnJf-20" value="" style="group" parent="1" vertex="1" connectable="0">
          <mxGeometry x="620" y="660" width="160" height="60" as="geometry" />
        </mxCell>
        <mxCell id="0y-Ugk34CN4X4bvtcnJf-21" value="&lt;font color=&quot;#19498c&quot;&gt;&lt;b&gt;Scheduler&lt;/b&gt;&lt;/font&gt;" style="rounded=0;whiteSpace=wrap;html=1;strokeWidth=1.5;strokeColor=#2875E2;align=left;spacingLeft=75;" parent="0y-Ugk34CN4X4bvtcnJf-20" vertex="1">
          <mxGeometry width="160" height="60" as="geometry" />
        </mxCell>
        <mxCell id="0y-Ugk34CN4X4bvtcnJf-22" value="" style="endArrow=none;html=1;rounded=0;strokeWidth=1.5;strokeColor=#2875E2;" parent="0y-Ugk34CN4X4bvtcnJf-20" edge="1">
          <mxGeometry width="50" height="50" relative="1" as="geometry">
            <mxPoint x="66" y="12" as="sourcePoint" />
            <mxPoint x="66" y="52" as="targetPoint" />
          </mxGeometry>
        </mxCell>
        <mxCell id="0y-Ugk34CN4X4bvtcnJf-23" value="" style="aspect=fixed;sketch=0;html=1;dashed=0;whitespace=wrap;fillColor=#2875E2;strokeColor=#ffffff;points=[[0.005,0.63,0],[0.1,0.2,0],[0.9,0.2,0],[0.5,0,0],[0.995,0.63,0],[0.72,0.99,0],[0.5,1,0],[0.28,0.99,0]];shape=mxgraph.kubernetes.icon2;prIcon=c_c_m" parent="0y-Ugk34CN4X4bvtcnJf-20" vertex="1">
          <mxGeometry x="5" y="6" width="50" height="48" as="geometry" />
        </mxCell>
        <mxCell id="0y-Ugk34CN4X4bvtcnJf-24" value="" style="group" parent="1" vertex="1" connectable="0">
          <mxGeometry x="800" y="660" width="160" height="60" as="geometry" />
        </mxCell>
        <mxCell id="0y-Ugk34CN4X4bvtcnJf-25" value="&lt;font color=&quot;#19498c&quot;&gt;&lt;b&gt;ETCD&lt;/b&gt;&lt;/font&gt;" style="rounded=0;whiteSpace=wrap;html=1;strokeWidth=1.5;strokeColor=#2875E2;align=left;spacingLeft=75;" parent="0y-Ugk34CN4X4bvtcnJf-24" vertex="1">
          <mxGeometry width="160" height="60" as="geometry" />
        </mxCell>
        <mxCell id="0y-Ugk34CN4X4bvtcnJf-26" value="" style="endArrow=none;html=1;rounded=0;strokeWidth=1.5;strokeColor=#2875E2;" parent="0y-Ugk34CN4X4bvtcnJf-24" edge="1">
          <mxGeometry width="50" height="50" relative="1" as="geometry">
            <mxPoint x="66" y="12" as="sourcePoint" />
            <mxPoint x="66" y="52" as="targetPoint" />
          </mxGeometry>
        </mxCell>
        <mxCell id="0y-Ugk34CN4X4bvtcnJf-27" value="" style="aspect=fixed;sketch=0;html=1;dashed=0;whitespace=wrap;fillColor=#2875E2;strokeColor=#ffffff;points=[[0.005,0.63,0],[0.1,0.2,0],[0.9,0.2,0],[0.5,0,0],[0.995,0.63,0],[0.72,0.99,0],[0.5,1,0],[0.28,0.99,0]];shape=mxgraph.kubernetes.icon2;prIcon=etcd;verticalAlign=bottom;spacingBottom=-20;" parent="0y-Ugk34CN4X4bvtcnJf-24" vertex="1">
          <mxGeometry x="5" y="6" width="50" height="48" as="geometry" />
        </mxCell>
        <mxCell id="0y-Ugk34CN4X4bvtcnJf-28" style="edgeStyle=orthogonalEdgeStyle;rounded=0;orthogonalLoop=1;jettySize=auto;html=1;entryX=1;entryY=0.75;entryDx=0;entryDy=0;exitX=0.5;exitY=0;exitDx=0;exitDy=0;" parent="1" source="0y-Ugk34CN4X4bvtcnJf-25" target="0y-Ugk34CN4X4bvtcnJf-16" edge="1">
          <mxGeometry relative="1" as="geometry" />
        </mxCell>
        <mxCell id="0y-Ugk34CN4X4bvtcnJf-29" value="" style="group" parent="1" vertex="1" connectable="0">
          <mxGeometry x="800" y="450" width="160" height="60" as="geometry" />
        </mxCell>
        <mxCell id="0y-Ugk34CN4X4bvtcnJf-30" value="&lt;font color=&quot;#19498c&quot;&gt;&lt;b&gt;Controller Manager&lt;/b&gt;&lt;/font&gt;" style="rounded=0;whiteSpace=wrap;html=1;strokeWidth=1.5;strokeColor=#2875E2;align=left;spacingLeft=75;" parent="0y-Ugk34CN4X4bvtcnJf-29" vertex="1">
          <mxGeometry width="160" height="60" as="geometry" />
        </mxCell>
        <mxCell id="0y-Ugk34CN4X4bvtcnJf-31" value="" style="endArrow=none;html=1;rounded=0;strokeWidth=1.5;strokeColor=#2875E2;" parent="0y-Ugk34CN4X4bvtcnJf-29" edge="1">
          <mxGeometry width="50" height="50" relative="1" as="geometry">
            <mxPoint x="66" y="12" as="sourcePoint" />
            <mxPoint x="66" y="52" as="targetPoint" />
          </mxGeometry>
        </mxCell>
        <mxCell id="0y-Ugk34CN4X4bvtcnJf-32" value="" style="aspect=fixed;sketch=0;html=1;dashed=0;whitespace=wrap;fillColor=#2875E2;strokeColor=#ffffff;points=[[0.005,0.63,0],[0.1,0.2,0],[0.9,0.2,0],[0.5,0,0],[0.995,0.63,0],[0.72,0.99,0],[0.5,1,0],[0.28,0.99,0]];shape=mxgraph.kubernetes.icon2;prIcon=cm;spacingBottom=-20;verticalAlign=bottom;" parent="0y-Ugk34CN4X4bvtcnJf-29" vertex="1">
          <mxGeometry x="5" y="6" width="50" height="48" as="geometry" />
        </mxCell>
        <mxCell id="0y-Ugk34CN4X4bvtcnJf-33" style="edgeStyle=orthogonalEdgeStyle;rounded=0;orthogonalLoop=1;jettySize=auto;html=1;entryX=1;entryY=0.25;entryDx=0;entryDy=0;exitX=0.5;exitY=1;exitDx=0;exitDy=0;" parent="1" source="0y-Ugk34CN4X4bvtcnJf-30" target="0y-Ugk34CN4X4bvtcnJf-16" edge="1">
          <mxGeometry relative="1" as="geometry" />
        </mxCell>
        <mxCell id="0y-Ugk34CN4X4bvtcnJf-34" style="edgeStyle=orthogonalEdgeStyle;rounded=0;orthogonalLoop=1;jettySize=auto;html=1;entryX=0.5;entryY=1;entryDx=0;entryDy=0;" parent="1" source="0y-Ugk34CN4X4bvtcnJf-21" target="0y-Ugk34CN4X4bvtcnJf-16" edge="1">
          <mxGeometry relative="1" as="geometry" />
        </mxCell>
        <mxCell id="0y-Ugk34CN4X4bvtcnJf-35" value="https://learn.microsoft.com/en-us/azure/aks/learn/quick-kubernetes-deploy-cli#connect-to-the-cluster" style="text;html=1;align=center;verticalAlign=middle;resizable=0;points=[];autosize=1;strokeColor=none;fillColor=none;" parent="1" vertex="1">
          <mxGeometry x="430" y="840" width="560" height="30" as="geometry" />
        </mxCell>
      </root>
    </mxGraphModel>
  </diagram>
  <diagram id="M6nFejj5aTG2h9ioBhDA" name="Concepts">
    <mxGraphModel dx="852" dy="965" grid="1" gridSize="10" guides="1" tooltips="1" connect="1" arrows="1" fold="1" page="1" pageScale="1" pageWidth="850" pageHeight="1100" math="0" shadow="0">
      <root>
        <mxCell id="0" />
        <mxCell id="1" parent="0" />
        <mxCell id="wwLPC9enB1izlAtzasy--1" value="Manifest.yaml" style="rounded=1;whiteSpace=wrap;html=1;" parent="1" vertex="1">
          <mxGeometry x="360" y="390" width="120" height="60" as="geometry" />
        </mxCell>
      </root>
    </mxGraphModel>
  </diagram>
  <diagram id="tzPAeADHsGifs8pNpeuL" name="High-level arch">
    <mxGraphModel dx="1537" dy="804" grid="1" gridSize="10" guides="1" tooltips="1" connect="1" arrows="1" fold="1" page="1" pageScale="1" pageWidth="827" pageHeight="1169" math="0" shadow="0">
      <root>
        <mxCell id="0" />
        <mxCell id="1" parent="0" />
        <mxCell id="o9iHWqXyLw83aH9UPGQM-1" value="&lt;font color=&quot;#19498c&quot;&gt;Kubernetes Control Plane&lt;/font&gt;" style="rounded=0;whiteSpace=wrap;html=1;strokeColor=#19498C;strokeWidth=1.5;verticalAlign=top;align=left;spacingLeft=35;fontSize=14;fillColor=none;" vertex="1" parent="1">
          <mxGeometry x="800" y="240" width="380" height="340" as="geometry" />
        </mxCell>
        <mxCell id="o9iHWqXyLw83aH9UPGQM-2" value="" style="rounded=0;whiteSpace=wrap;html=1;strokeColor=#19498C;strokeWidth=1.5;fillColor=#19498C;" vertex="1" parent="1">
          <mxGeometry x="800" y="240" width="30" height="30" as="geometry" />
        </mxCell>
        <mxCell id="o9iHWqXyLw83aH9UPGQM-3" value="" style="html=1;verticalLabelPosition=bottom;align=center;labelBackgroundColor=#ffffff;verticalAlign=top;strokeWidth=2;strokeColor=#FFFFFF;shadow=0;dashed=0;shape=mxgraph.ios7.icons.cube;fillColor=none;" vertex="1" parent="1">
          <mxGeometry x="805" y="245" width="20" height="20" as="geometry" />
        </mxCell>
        <mxCell id="o9iHWqXyLw83aH9UPGQM-4" value="" style="group" vertex="1" connectable="0" parent="1">
          <mxGeometry x="820" y="290" width="160" height="60" as="geometry" />
        </mxCell>
        <mxCell id="o9iHWqXyLw83aH9UPGQM-5" value="&lt;font color=&quot;#19498c&quot;&gt;&lt;b&gt;Cloud&amp;nbsp;&lt;/b&gt;&lt;/font&gt;&lt;div&gt;&lt;font color=&quot;#19498c&quot;&gt;&lt;b&gt;Control Manager&lt;/b&gt;&lt;/font&gt;&lt;/div&gt;" style="rounded=0;whiteSpace=wrap;html=1;strokeWidth=1.5;strokeColor=#2875E2;align=left;spacingLeft=75;" vertex="1" parent="o9iHWqXyLw83aH9UPGQM-4">
          <mxGeometry width="160" height="60" as="geometry" />
        </mxCell>
        <mxCell id="o9iHWqXyLw83aH9UPGQM-6" value="" style="endArrow=none;html=1;rounded=0;strokeWidth=1.5;strokeColor=#2875E2;" edge="1" parent="o9iHWqXyLw83aH9UPGQM-4">
          <mxGeometry width="50" height="50" relative="1" as="geometry">
            <mxPoint x="66" y="12" as="sourcePoint" />
            <mxPoint x="66" y="52" as="targetPoint" />
          </mxGeometry>
        </mxCell>
        <mxCell id="o9iHWqXyLw83aH9UPGQM-7" value="" style="aspect=fixed;sketch=0;html=1;dashed=0;whitespace=wrap;fillColor=#2875E2;strokeColor=#ffffff;points=[[0.005,0.63,0],[0.1,0.2,0],[0.9,0.2,0],[0.5,0,0],[0.995,0.63,0],[0.72,0.99,0],[0.5,1,0],[0.28,0.99,0]];shape=mxgraph.kubernetes.icon2;prIcon=c_c_m" vertex="1" parent="o9iHWqXyLw83aH9UPGQM-4">
          <mxGeometry x="5" y="6" width="50" height="48" as="geometry" />
        </mxCell>
        <mxCell id="o9iHWqXyLw83aH9UPGQM-8" value="" style="group" vertex="1" connectable="0" parent="1">
          <mxGeometry x="820" y="395" width="160" height="60" as="geometry" />
        </mxCell>
        <mxCell id="o9iHWqXyLw83aH9UPGQM-9" value="&lt;font color=&quot;#19498c&quot;&gt;&lt;b&gt;API&lt;/b&gt;&lt;/font&gt;&lt;div&gt;&lt;font color=&quot;#19498c&quot;&gt;&lt;b&gt;Server&lt;/b&gt;&lt;/font&gt;&lt;/div&gt;" style="rounded=0;whiteSpace=wrap;html=1;strokeWidth=1.5;strokeColor=#2875E2;align=left;spacingLeft=75;" vertex="1" parent="o9iHWqXyLw83aH9UPGQM-8">
          <mxGeometry width="160" height="60" as="geometry" />
        </mxCell>
        <mxCell id="o9iHWqXyLw83aH9UPGQM-10" value="" style="endArrow=none;html=1;rounded=0;strokeWidth=1.5;strokeColor=#2875E2;" edge="1" parent="o9iHWqXyLw83aH9UPGQM-8">
          <mxGeometry width="50" height="50" relative="1" as="geometry">
            <mxPoint x="66" y="12" as="sourcePoint" />
            <mxPoint x="66" y="52" as="targetPoint" />
          </mxGeometry>
        </mxCell>
        <mxCell id="o9iHWqXyLw83aH9UPGQM-11" value="" style="aspect=fixed;sketch=0;html=1;dashed=0;whitespace=wrap;fillColor=#2875E2;strokeColor=#ffffff;points=[[0.005,0.63,0],[0.1,0.2,0],[0.9,0.2,0],[0.5,0,0],[0.995,0.63,0],[0.72,0.99,0],[0.5,1,0],[0.28,0.99,0]];shape=mxgraph.kubernetes.icon2;prIcon=c_c_m" vertex="1" parent="o9iHWqXyLw83aH9UPGQM-8">
          <mxGeometry x="5" y="6" width="50" height="48" as="geometry" />
        </mxCell>
        <mxCell id="o9iHWqXyLw83aH9UPGQM-12" style="edgeStyle=orthogonalEdgeStyle;rounded=0;orthogonalLoop=1;jettySize=auto;html=1;startArrow=classic;startFill=1;" edge="1" parent="1" source="o9iHWqXyLw83aH9UPGQM-9" target="o9iHWqXyLw83aH9UPGQM-5">
          <mxGeometry relative="1" as="geometry" />
        </mxCell>
        <mxCell id="o9iHWqXyLw83aH9UPGQM-13" value="" style="group" vertex="1" connectable="0" parent="1">
          <mxGeometry x="820" y="500" width="160" height="60" as="geometry" />
        </mxCell>
        <mxCell id="o9iHWqXyLw83aH9UPGQM-14" value="&lt;font color=&quot;#19498c&quot;&gt;&lt;b&gt;Scheduler&lt;/b&gt;&lt;/font&gt;" style="rounded=0;whiteSpace=wrap;html=1;strokeWidth=1.5;strokeColor=#2875E2;align=left;spacingLeft=75;" vertex="1" parent="o9iHWqXyLw83aH9UPGQM-13">
          <mxGeometry width="160" height="60" as="geometry" />
        </mxCell>
        <mxCell id="o9iHWqXyLw83aH9UPGQM-15" value="" style="endArrow=none;html=1;rounded=0;strokeWidth=1.5;strokeColor=#2875E2;" edge="1" parent="o9iHWqXyLw83aH9UPGQM-13">
          <mxGeometry width="50" height="50" relative="1" as="geometry">
            <mxPoint x="66" y="12" as="sourcePoint" />
            <mxPoint x="66" y="52" as="targetPoint" />
          </mxGeometry>
        </mxCell>
        <mxCell id="o9iHWqXyLw83aH9UPGQM-16" value="" style="aspect=fixed;sketch=0;html=1;dashed=0;whitespace=wrap;fillColor=#2875E2;strokeColor=#ffffff;points=[[0.005,0.63,0],[0.1,0.2,0],[0.9,0.2,0],[0.5,0,0],[0.995,0.63,0],[0.72,0.99,0],[0.5,1,0],[0.28,0.99,0]];shape=mxgraph.kubernetes.icon2;prIcon=c_c_m" vertex="1" parent="o9iHWqXyLw83aH9UPGQM-13">
          <mxGeometry x="5" y="6" width="50" height="48" as="geometry" />
        </mxCell>
        <mxCell id="o9iHWqXyLw83aH9UPGQM-17" value="" style="group" vertex="1" connectable="0" parent="1">
          <mxGeometry x="1000" y="500" width="160" height="60" as="geometry" />
        </mxCell>
        <mxCell id="o9iHWqXyLw83aH9UPGQM-18" value="&lt;font color=&quot;#19498c&quot;&gt;&lt;b&gt;ETCD&lt;/b&gt;&lt;/font&gt;" style="rounded=0;whiteSpace=wrap;html=1;strokeWidth=1.5;strokeColor=#2875E2;align=left;spacingLeft=75;" vertex="1" parent="o9iHWqXyLw83aH9UPGQM-17">
          <mxGeometry width="160" height="60" as="geometry" />
        </mxCell>
        <mxCell id="o9iHWqXyLw83aH9UPGQM-19" value="" style="endArrow=none;html=1;rounded=0;strokeWidth=1.5;strokeColor=#2875E2;" edge="1" parent="o9iHWqXyLw83aH9UPGQM-17">
          <mxGeometry width="50" height="50" relative="1" as="geometry">
            <mxPoint x="66" y="12" as="sourcePoint" />
            <mxPoint x="66" y="52" as="targetPoint" />
          </mxGeometry>
        </mxCell>
        <mxCell id="o9iHWqXyLw83aH9UPGQM-20" value="" style="aspect=fixed;sketch=0;html=1;dashed=0;whitespace=wrap;fillColor=#2875E2;strokeColor=#ffffff;points=[[0.005,0.63,0],[0.1,0.2,0],[0.9,0.2,0],[0.5,0,0],[0.995,0.63,0],[0.72,0.99,0],[0.5,1,0],[0.28,0.99,0]];shape=mxgraph.kubernetes.icon2;prIcon=etcd;verticalAlign=bottom;spacingBottom=-20;" vertex="1" parent="o9iHWqXyLw83aH9UPGQM-17">
          <mxGeometry x="5" y="6" width="50" height="48" as="geometry" />
        </mxCell>
        <mxCell id="o9iHWqXyLw83aH9UPGQM-21" style="edgeStyle=orthogonalEdgeStyle;rounded=0;orthogonalLoop=1;jettySize=auto;html=1;entryX=1;entryY=0.75;entryDx=0;entryDy=0;exitX=0.5;exitY=0;exitDx=0;exitDy=0;" edge="1" parent="1" source="o9iHWqXyLw83aH9UPGQM-18" target="o9iHWqXyLw83aH9UPGQM-9">
          <mxGeometry relative="1" as="geometry" />
        </mxCell>
        <mxCell id="o9iHWqXyLw83aH9UPGQM-22" value="" style="group" vertex="1" connectable="0" parent="1">
          <mxGeometry x="1000" y="290" width="160" height="60" as="geometry" />
        </mxCell>
        <mxCell id="o9iHWqXyLw83aH9UPGQM-23" value="&lt;font color=&quot;#19498c&quot;&gt;&lt;b&gt;Controller Manager&lt;/b&gt;&lt;/font&gt;" style="rounded=0;whiteSpace=wrap;html=1;strokeWidth=1.5;strokeColor=#2875E2;align=left;spacingLeft=75;" vertex="1" parent="o9iHWqXyLw83aH9UPGQM-22">
          <mxGeometry width="160" height="60" as="geometry" />
        </mxCell>
        <mxCell id="o9iHWqXyLw83aH9UPGQM-24" value="" style="endArrow=none;html=1;rounded=0;strokeWidth=1.5;strokeColor=#2875E2;" edge="1" parent="o9iHWqXyLw83aH9UPGQM-22">
          <mxGeometry width="50" height="50" relative="1" as="geometry">
            <mxPoint x="66" y="12" as="sourcePoint" />
            <mxPoint x="66" y="52" as="targetPoint" />
          </mxGeometry>
        </mxCell>
        <mxCell id="o9iHWqXyLw83aH9UPGQM-25" value="" style="aspect=fixed;sketch=0;html=1;dashed=0;whitespace=wrap;fillColor=#2875E2;strokeColor=#ffffff;points=[[0.005,0.63,0],[0.1,0.2,0],[0.9,0.2,0],[0.5,0,0],[0.995,0.63,0],[0.72,0.99,0],[0.5,1,0],[0.28,0.99,0]];shape=mxgraph.kubernetes.icon2;prIcon=cm;spacingBottom=-20;verticalAlign=bottom;" vertex="1" parent="o9iHWqXyLw83aH9UPGQM-22">
          <mxGeometry x="5" y="6" width="50" height="48" as="geometry" />
        </mxCell>
        <mxCell id="o9iHWqXyLw83aH9UPGQM-26" style="edgeStyle=orthogonalEdgeStyle;rounded=0;orthogonalLoop=1;jettySize=auto;html=1;entryX=1;entryY=0.25;entryDx=0;entryDy=0;exitX=0.5;exitY=1;exitDx=0;exitDy=0;" edge="1" parent="1" source="o9iHWqXyLw83aH9UPGQM-23" target="o9iHWqXyLw83aH9UPGQM-9">
          <mxGeometry relative="1" as="geometry" />
        </mxCell>
        <mxCell id="o9iHWqXyLw83aH9UPGQM-27" style="edgeStyle=orthogonalEdgeStyle;rounded=0;orthogonalLoop=1;jettySize=auto;html=1;entryX=0.5;entryY=1;entryDx=0;entryDy=0;" edge="1" parent="1" source="o9iHWqXyLw83aH9UPGQM-14" target="o9iHWqXyLw83aH9UPGQM-9">
          <mxGeometry relative="1" as="geometry" />
        </mxCell>
        <mxCell id="o9iHWqXyLw83aH9UPGQM-28" value="&lt;font color=&quot;#19498c&quot;&gt;Worker Node (VM)&lt;/font&gt;" style="rounded=0;whiteSpace=wrap;html=1;strokeColor=#19498C;strokeWidth=1.5;verticalAlign=top;align=left;spacingLeft=35;fontSize=14;fillColor=none;" vertex="1" parent="1">
          <mxGeometry x="340" y="240" width="280" height="400" as="geometry" />
        </mxCell>
        <mxCell id="o9iHWqXyLw83aH9UPGQM-29" value="" style="rounded=0;whiteSpace=wrap;html=1;strokeColor=#19498C;strokeWidth=1.5;fillColor=#19498C;" vertex="1" parent="1">
          <mxGeometry x="340" y="240" width="30" height="30" as="geometry" />
        </mxCell>
        <mxCell id="o9iHWqXyLw83aH9UPGQM-30" value="" style="html=1;verticalLabelPosition=bottom;align=center;labelBackgroundColor=#ffffff;verticalAlign=top;strokeWidth=2;strokeColor=#FFFFFF;shadow=0;dashed=0;shape=mxgraph.ios7.icons.cube;fillColor=none;" vertex="1" parent="1">
          <mxGeometry x="345" y="245" width="20" height="20" as="geometry" />
        </mxCell>
        <mxCell id="o9iHWqXyLw83aH9UPGQM-31" value="" style="group" vertex="1" connectable="0" parent="1">
          <mxGeometry x="400" y="800" width="160" height="60" as="geometry" />
        </mxCell>
        <mxCell id="o9iHWqXyLw83aH9UPGQM-32" value="&lt;font color=&quot;#19498c&quot;&gt;&lt;b&gt;Cloud&amp;nbsp;&lt;/b&gt;&lt;/font&gt;&lt;div&gt;&lt;font color=&quot;#19498c&quot;&gt;&lt;b&gt;Control Manager&lt;/b&gt;&lt;/font&gt;&lt;/div&gt;" style="rounded=0;whiteSpace=wrap;html=1;strokeWidth=1.5;strokeColor=#2875E2;align=left;spacingLeft=75;" vertex="1" parent="o9iHWqXyLw83aH9UPGQM-31">
          <mxGeometry width="160" height="60" as="geometry" />
        </mxCell>
        <mxCell id="o9iHWqXyLw83aH9UPGQM-33" value="" style="endArrow=none;html=1;rounded=0;strokeWidth=1.5;strokeColor=#2875E2;" edge="1" parent="o9iHWqXyLw83aH9UPGQM-31">
          <mxGeometry width="50" height="50" relative="1" as="geometry">
            <mxPoint x="66" y="12" as="sourcePoint" />
            <mxPoint x="66" y="52" as="targetPoint" />
          </mxGeometry>
        </mxCell>
        <mxCell id="o9iHWqXyLw83aH9UPGQM-34" value="" style="aspect=fixed;sketch=0;html=1;dashed=0;whitespace=wrap;fillColor=#2875E2;strokeColor=#ffffff;points=[[0.005,0.63,0],[0.1,0.2,0],[0.9,0.2,0],[0.5,0,0],[0.995,0.63,0],[0.72,0.99,0],[0.5,1,0],[0.28,0.99,0]];shape=mxgraph.kubernetes.icon2;prIcon=c_c_m" vertex="1" parent="o9iHWqXyLw83aH9UPGQM-31">
          <mxGeometry x="5" y="6" width="50" height="48" as="geometry" />
        </mxCell>
        <mxCell id="o9iHWqXyLw83aH9UPGQM-35" value="" style="group" vertex="1" connectable="0" parent="1">
          <mxGeometry x="400" y="900" width="160" height="60" as="geometry" />
        </mxCell>
        <mxCell id="o9iHWqXyLw83aH9UPGQM-36" value="&lt;font color=&quot;#19498c&quot;&gt;&lt;b&gt;API&lt;/b&gt;&lt;/font&gt;&lt;div&gt;&lt;font color=&quot;#19498c&quot;&gt;&lt;b&gt;Server&lt;/b&gt;&lt;/font&gt;&lt;/div&gt;" style="rounded=0;whiteSpace=wrap;html=1;strokeWidth=1.5;strokeColor=#2875E2;align=left;spacingLeft=75;" vertex="1" parent="o9iHWqXyLw83aH9UPGQM-35">
          <mxGeometry width="160" height="60" as="geometry" />
        </mxCell>
        <mxCell id="o9iHWqXyLw83aH9UPGQM-37" value="" style="endArrow=none;html=1;rounded=0;strokeWidth=1.5;strokeColor=#2875E2;" edge="1" parent="o9iHWqXyLw83aH9UPGQM-35">
          <mxGeometry width="50" height="50" relative="1" as="geometry">
            <mxPoint x="66" y="12" as="sourcePoint" />
            <mxPoint x="66" y="52" as="targetPoint" />
          </mxGeometry>
        </mxCell>
        <mxCell id="o9iHWqXyLw83aH9UPGQM-38" value="" style="aspect=fixed;sketch=0;html=1;dashed=0;whitespace=wrap;fillColor=#2875E2;strokeColor=#ffffff;points=[[0.005,0.63,0],[0.1,0.2,0],[0.9,0.2,0],[0.5,0,0],[0.995,0.63,0],[0.72,0.99,0],[0.5,1,0],[0.28,0.99,0]];shape=mxgraph.kubernetes.icon2;prIcon=c_c_m" vertex="1" parent="o9iHWqXyLw83aH9UPGQM-35">
          <mxGeometry x="5" y="6" width="50" height="48" as="geometry" />
        </mxCell>
        <mxCell id="o9iHWqXyLw83aH9UPGQM-39" style="edgeStyle=orthogonalEdgeStyle;rounded=0;orthogonalLoop=1;jettySize=auto;html=1;startArrow=classic;startFill=1;" edge="1" source="o9iHWqXyLw83aH9UPGQM-36" target="o9iHWqXyLw83aH9UPGQM-32" parent="1">
          <mxGeometry relative="1" as="geometry" />
        </mxCell>
        <mxCell id="o9iHWqXyLw83aH9UPGQM-40" value="" style="group" vertex="1" connectable="0" parent="1">
          <mxGeometry x="400" y="1000" width="160" height="60" as="geometry" />
        </mxCell>
        <mxCell id="o9iHWqXyLw83aH9UPGQM-41" value="&lt;font color=&quot;#19498c&quot;&gt;&lt;b&gt;Scheduler&lt;/b&gt;&lt;/font&gt;" style="rounded=0;whiteSpace=wrap;html=1;strokeWidth=1.5;strokeColor=#2875E2;align=left;spacingLeft=75;" vertex="1" parent="o9iHWqXyLw83aH9UPGQM-40">
          <mxGeometry width="160" height="60" as="geometry" />
        </mxCell>
        <mxCell id="o9iHWqXyLw83aH9UPGQM-42" value="" style="endArrow=none;html=1;rounded=0;strokeWidth=1.5;strokeColor=#2875E2;" edge="1" parent="o9iHWqXyLw83aH9UPGQM-40">
          <mxGeometry width="50" height="50" relative="1" as="geometry">
            <mxPoint x="66" y="12" as="sourcePoint" />
            <mxPoint x="66" y="52" as="targetPoint" />
          </mxGeometry>
        </mxCell>
        <mxCell id="o9iHWqXyLw83aH9UPGQM-43" value="" style="aspect=fixed;sketch=0;html=1;dashed=0;whitespace=wrap;fillColor=#2875E2;strokeColor=#ffffff;points=[[0.005,0.63,0],[0.1,0.2,0],[0.9,0.2,0],[0.5,0,0],[0.995,0.63,0],[0.72,0.99,0],[0.5,1,0],[0.28,0.99,0]];shape=mxgraph.kubernetes.icon2;prIcon=c_c_m" vertex="1" parent="o9iHWqXyLw83aH9UPGQM-40">
          <mxGeometry x="5" y="6" width="50" height="48" as="geometry" />
        </mxCell>
        <mxCell id="o9iHWqXyLw83aH9UPGQM-44" value="" style="group" vertex="1" connectable="0" parent="1">
          <mxGeometry x="580" y="1000" width="160" height="60" as="geometry" />
        </mxCell>
        <mxCell id="o9iHWqXyLw83aH9UPGQM-45" value="&lt;font color=&quot;#19498c&quot;&gt;&lt;b&gt;ETCD&lt;/b&gt;&lt;/font&gt;" style="rounded=0;whiteSpace=wrap;html=1;strokeWidth=1.5;strokeColor=#2875E2;align=left;spacingLeft=75;" vertex="1" parent="o9iHWqXyLw83aH9UPGQM-44">
          <mxGeometry width="160" height="60" as="geometry" />
        </mxCell>
        <mxCell id="o9iHWqXyLw83aH9UPGQM-46" value="" style="endArrow=none;html=1;rounded=0;strokeWidth=1.5;strokeColor=#2875E2;" edge="1" parent="o9iHWqXyLw83aH9UPGQM-44">
          <mxGeometry width="50" height="50" relative="1" as="geometry">
            <mxPoint x="66" y="12" as="sourcePoint" />
            <mxPoint x="66" y="52" as="targetPoint" />
          </mxGeometry>
        </mxCell>
        <mxCell id="o9iHWqXyLw83aH9UPGQM-47" value="" style="aspect=fixed;sketch=0;html=1;dashed=0;whitespace=wrap;fillColor=#2875E2;strokeColor=#ffffff;points=[[0.005,0.63,0],[0.1,0.2,0],[0.9,0.2,0],[0.5,0,0],[0.995,0.63,0],[0.72,0.99,0],[0.5,1,0],[0.28,0.99,0]];shape=mxgraph.kubernetes.icon2;prIcon=etcd;verticalAlign=bottom;spacingBottom=-20;" vertex="1" parent="o9iHWqXyLw83aH9UPGQM-44">
          <mxGeometry x="5" y="6" width="50" height="48" as="geometry" />
        </mxCell>
        <mxCell id="o9iHWqXyLw83aH9UPGQM-48" style="edgeStyle=orthogonalEdgeStyle;rounded=0;orthogonalLoop=1;jettySize=auto;html=1;entryX=1;entryY=0.75;entryDx=0;entryDy=0;exitX=0.5;exitY=0;exitDx=0;exitDy=0;" edge="1" source="o9iHWqXyLw83aH9UPGQM-45" target="o9iHWqXyLw83aH9UPGQM-36" parent="1">
          <mxGeometry relative="1" as="geometry" />
        </mxCell>
        <mxCell id="o9iHWqXyLw83aH9UPGQM-49" value="" style="group" vertex="1" connectable="0" parent="1">
          <mxGeometry x="580" y="800" width="160" height="60" as="geometry" />
        </mxCell>
        <mxCell id="o9iHWqXyLw83aH9UPGQM-50" value="&lt;font color=&quot;#19498c&quot;&gt;&lt;b&gt;Controller Manager&lt;/b&gt;&lt;/font&gt;" style="rounded=0;whiteSpace=wrap;html=1;strokeWidth=1.5;strokeColor=#2875E2;align=left;spacingLeft=75;" vertex="1" parent="o9iHWqXyLw83aH9UPGQM-49">
          <mxGeometry width="160" height="60" as="geometry" />
        </mxCell>
        <mxCell id="o9iHWqXyLw83aH9UPGQM-51" value="" style="endArrow=none;html=1;rounded=0;strokeWidth=1.5;strokeColor=#2875E2;" edge="1" parent="o9iHWqXyLw83aH9UPGQM-49">
          <mxGeometry width="50" height="50" relative="1" as="geometry">
            <mxPoint x="66" y="12" as="sourcePoint" />
            <mxPoint x="66" y="52" as="targetPoint" />
          </mxGeometry>
        </mxCell>
        <mxCell id="o9iHWqXyLw83aH9UPGQM-52" value="" style="aspect=fixed;sketch=0;html=1;dashed=0;whitespace=wrap;fillColor=#2875E2;strokeColor=#ffffff;points=[[0.005,0.63,0],[0.1,0.2,0],[0.9,0.2,0],[0.5,0,0],[0.995,0.63,0],[0.72,0.99,0],[0.5,1,0],[0.28,0.99,0]];shape=mxgraph.kubernetes.icon2;prIcon=cm;spacingBottom=-20;verticalAlign=bottom;" vertex="1" parent="o9iHWqXyLw83aH9UPGQM-49">
          <mxGeometry x="5" y="6" width="50" height="48" as="geometry" />
        </mxCell>
        <mxCell id="o9iHWqXyLw83aH9UPGQM-53" style="edgeStyle=orthogonalEdgeStyle;rounded=0;orthogonalLoop=1;jettySize=auto;html=1;entryX=1;entryY=0.25;entryDx=0;entryDy=0;exitX=0.5;exitY=1;exitDx=0;exitDy=0;" edge="1" source="o9iHWqXyLw83aH9UPGQM-50" target="o9iHWqXyLw83aH9UPGQM-36" parent="1">
          <mxGeometry relative="1" as="geometry" />
        </mxCell>
        <mxCell id="o9iHWqXyLw83aH9UPGQM-54" style="edgeStyle=orthogonalEdgeStyle;rounded=0;orthogonalLoop=1;jettySize=auto;html=1;entryX=0.5;entryY=1;entryDx=0;entryDy=0;" edge="1" source="o9iHWqXyLw83aH9UPGQM-41" target="o9iHWqXyLw83aH9UPGQM-36" parent="1">
          <mxGeometry relative="1" as="geometry" />
        </mxCell>
        <mxCell id="o9iHWqXyLw83aH9UPGQM-55" value="" style="rounded=0;whiteSpace=wrap;html=1;strokeColor=#19498C;strokeWidth=1.5;fillColor=#19498C;" vertex="1" parent="1">
          <mxGeometry x="360" y="280" width="30" height="30" as="geometry" />
        </mxCell>
        <mxCell id="o9iHWqXyLw83aH9UPGQM-56" value="" style="html=1;verticalLabelPosition=bottom;align=center;labelBackgroundColor=#ffffff;verticalAlign=top;strokeWidth=2;strokeColor=#FFFFFF;shadow=0;dashed=0;shape=mxgraph.ios7.icons.cube;fillColor=none;" vertex="1" parent="1">
          <mxGeometry x="365" y="285" width="20" height="20" as="geometry" />
        </mxCell>
        <mxCell id="o9iHWqXyLw83aH9UPGQM-57" value="&lt;font color=&quot;#19498c&quot;&gt;Pod&lt;/font&gt;" style="rounded=0;whiteSpace=wrap;html=1;strokeColor=#19498C;strokeWidth=1.5;verticalAlign=top;align=left;spacingLeft=35;fontSize=14;fillColor=none;" vertex="1" parent="1">
          <mxGeometry x="360" y="280" width="240" height="160" as="geometry" />
        </mxCell>
        <mxCell id="o9iHWqXyLw83aH9UPGQM-58" value="" style="rounded=0;whiteSpace=wrap;html=1;strokeColor=#19498C;strokeWidth=1.5;fillColor=#19498C;" vertex="1" parent="1">
          <mxGeometry x="360" y="460" width="30" height="30" as="geometry" />
        </mxCell>
        <mxCell id="o9iHWqXyLw83aH9UPGQM-59" value="" style="html=1;verticalLabelPosition=bottom;align=center;labelBackgroundColor=#ffffff;verticalAlign=top;strokeWidth=2;strokeColor=#FFFFFF;shadow=0;dashed=0;shape=mxgraph.ios7.icons.cube;fillColor=none;" vertex="1" parent="1">
          <mxGeometry x="365" y="465" width="20" height="20" as="geometry" />
        </mxCell>
        <mxCell id="o9iHWqXyLw83aH9UPGQM-60" value="&lt;font color=&quot;#19498c&quot;&gt;Pod&lt;/font&gt;" style="rounded=0;whiteSpace=wrap;html=1;strokeColor=#19498C;strokeWidth=1.5;verticalAlign=top;align=left;spacingLeft=35;fontSize=14;fillColor=none;" vertex="1" parent="1">
          <mxGeometry x="360" y="460" width="240" height="160" as="geometry" />
        </mxCell>
        <mxCell id="o9iHWqXyLw83aH9UPGQM-74" value="" style="group" vertex="1" connectable="0" parent="1">
          <mxGeometry x="140" y="900" width="160" height="60" as="geometry" />
        </mxCell>
        <mxCell id="o9iHWqXyLw83aH9UPGQM-75" value="&lt;font color=&quot;#19498c&quot;&gt;&lt;b&gt;kubectl&lt;/b&gt;&lt;/font&gt;" style="rounded=0;whiteSpace=wrap;html=1;strokeWidth=1.5;strokeColor=#2875E2;align=left;spacingLeft=75;" vertex="1" parent="o9iHWqXyLw83aH9UPGQM-74">
          <mxGeometry width="160" height="60" as="geometry" />
        </mxCell>
        <mxCell id="o9iHWqXyLw83aH9UPGQM-76" value="" style="endArrow=none;html=1;rounded=0;strokeWidth=1.5;strokeColor=#2875E2;" edge="1" parent="o9iHWqXyLw83aH9UPGQM-74">
          <mxGeometry width="50" height="50" relative="1" as="geometry">
            <mxPoint x="66" y="12" as="sourcePoint" />
            <mxPoint x="66" y="52" as="targetPoint" />
          </mxGeometry>
        </mxCell>
        <mxCell id="o9iHWqXyLw83aH9UPGQM-77" value="" style="aspect=fixed;sketch=0;html=1;dashed=0;whitespace=wrap;fillColor=#2875E2;strokeColor=#ffffff;points=[[0.005,0.63,0],[0.1,0.2,0],[0.9,0.2,0],[0.5,0,0],[0.995,0.63,0],[0.72,0.99,0],[0.5,1,0],[0.28,0.99,0]];shape=mxgraph.kubernetes.icon2;prIcon=c_c_m" vertex="1" parent="o9iHWqXyLw83aH9UPGQM-74">
          <mxGeometry x="5" y="6" width="50" height="48" as="geometry" />
        </mxCell>
        <mxCell id="o9iHWqXyLw83aH9UPGQM-79" style="edgeStyle=none;rounded=0;orthogonalLoop=1;jettySize=auto;html=1;entryX=0;entryY=0.5;entryDx=0;entryDy=0;exitX=1;exitY=0.5;exitDx=0;exitDy=0;" edge="1" parent="1" source="o9iHWqXyLw83aH9UPGQM-75" target="o9iHWqXyLw83aH9UPGQM-36">
          <mxGeometry relative="1" as="geometry">
            <mxPoint x="300" y="922.2222222222222" as="sourcePoint" />
          </mxGeometry>
        </mxCell>
        <mxCell id="o9iHWqXyLw83aH9UPGQM-62" value="Untitled Layer" parent="0" />
        <mxCell id="o9iHWqXyLw83aH9UPGQM-65" style="rounded=0;orthogonalLoop=1;jettySize=auto;html=1;entryX=0;entryY=0;entryDx=0;entryDy=0;" edge="1" parent="o9iHWqXyLw83aH9UPGQM-62" source="o9iHWqXyLw83aH9UPGQM-64" target="o9iHWqXyLw83aH9UPGQM-36">
          <mxGeometry relative="1" as="geometry" />
        </mxCell>
        <mxCell id="o9iHWqXyLw83aH9UPGQM-64" value="All things are communicated with the API" style="shape=note;whiteSpace=wrap;html=1;backgroundOutline=1;darkOpacity=0.05;" vertex="1" parent="o9iHWqXyLw83aH9UPGQM-62">
          <mxGeometry x="160" y="760" width="120" height="100" as="geometry" />
        </mxCell>
        <mxCell id="o9iHWqXyLw83aH9UPGQM-78" style="rounded=0;orthogonalLoop=1;jettySize=auto;html=1;entryX=0;entryY=0.5;entryDx=0;entryDy=0;" edge="1" parent="o9iHWqXyLw83aH9UPGQM-62" source="o9iHWqXyLw83aH9UPGQM-66" target="o9iHWqXyLw83aH9UPGQM-75">
          <mxGeometry relative="1" as="geometry" />
        </mxCell>
        <mxCell id="o9iHWqXyLw83aH9UPGQM-66" value="CLI for user/admin to contact and interact with kube" style="shape=note;whiteSpace=wrap;html=1;backgroundOutline=1;darkOpacity=0.05;" vertex="1" parent="o9iHWqXyLw83aH9UPGQM-62">
          <mxGeometry x="-40" y="1160" width="150" height="80" as="geometry" />
        </mxCell>
        <mxCell id="o9iHWqXyLw83aH9UPGQM-68" style="rounded=0;orthogonalLoop=1;jettySize=auto;html=1;entryX=1;entryY=0;entryDx=0;entryDy=0;" edge="1" parent="o9iHWqXyLw83aH9UPGQM-62" source="o9iHWqXyLw83aH9UPGQM-67" target="o9iHWqXyLw83aH9UPGQM-45">
          <mxGeometry relative="1" as="geometry" />
        </mxCell>
        <mxCell id="o9iHWqXyLw83aH9UPGQM-67" value="persistent database store, store the current state and desired state&lt;div&gt;&lt;br&gt;&lt;/div&gt;&lt;div&gt;Can only be accessed by the API server&lt;/div&gt;" style="shape=note;whiteSpace=wrap;html=1;backgroundOutline=1;darkOpacity=0.05;size=0;" vertex="1" parent="o9iHWqXyLw83aH9UPGQM-62">
          <mxGeometry x="800" y="880" width="200" height="80" as="geometry" />
        </mxCell>
        <mxCell id="o9iHWqXyLw83aH9UPGQM-70" style="edgeStyle=orthogonalEdgeStyle;rounded=0;orthogonalLoop=1;jettySize=auto;html=1;" edge="1" parent="o9iHWqXyLw83aH9UPGQM-62" source="o9iHWqXyLw83aH9UPGQM-69" target="o9iHWqXyLw83aH9UPGQM-41">
          <mxGeometry relative="1" as="geometry" />
        </mxCell>
        <mxCell id="o9iHWqXyLw83aH9UPGQM-69" value="work with API server to handle placement of all workloads in each node. considers capacity and affinity/anti-afffinity." style="shape=note;whiteSpace=wrap;html=1;backgroundOutline=1;darkOpacity=0.05;size=0;" vertex="1" parent="o9iHWqXyLw83aH9UPGQM-62">
          <mxGeometry x="385" y="1201" width="190" height="80" as="geometry" />
        </mxCell>
        <mxCell id="o9iHWqXyLw83aH9UPGQM-72" style="rounded=0;orthogonalLoop=1;jettySize=auto;html=1;" edge="1" parent="o9iHWqXyLw83aH9UPGQM-62" source="o9iHWqXyLw83aH9UPGQM-71" target="o9iHWqXyLw83aH9UPGQM-50">
          <mxGeometry relative="1" as="geometry" />
        </mxCell>
        <mxCell id="o9iHWqXyLw83aH9UPGQM-71" value="Monitors and responds to events that occur in the cluster to maintain desired state." style="shape=note;whiteSpace=wrap;html=1;backgroundOutline=1;darkOpacity=0.05;" vertex="1" parent="o9iHWqXyLw83aH9UPGQM-62">
          <mxGeometry x="800" y="680" width="200" height="100" as="geometry" />
        </mxCell>
        <mxCell id="o9iHWqXyLw83aH9UPGQM-140" style="edgeStyle=none;rounded=0;orthogonalLoop=1;jettySize=auto;html=1;entryX=0;entryY=0.5;entryDx=0;entryDy=0;" edge="1" parent="o9iHWqXyLw83aH9UPGQM-62" source="o9iHWqXyLw83aH9UPGQM-86" target="o9iHWqXyLw83aH9UPGQM-9">
          <mxGeometry relative="1" as="geometry" />
        </mxCell>
        <mxCell id="o9iHWqXyLw83aH9UPGQM-141" value="Communicates" style="edgeLabel;html=1;align=center;verticalAlign=middle;resizable=0;points=[];" vertex="1" connectable="0" parent="o9iHWqXyLw83aH9UPGQM-140">
          <mxGeometry x="0.0661" y="1" relative="1" as="geometry">
            <mxPoint as="offset" />
          </mxGeometry>
        </mxCell>
        <mxCell id="o9iHWqXyLw83aH9UPGQM-86" value="kubelet" style="rounded=0;whiteSpace=wrap;html=1;" vertex="1" parent="o9iHWqXyLw83aH9UPGQM-62">
          <mxGeometry x="520" y="290" width="60" height="40" as="geometry" />
        </mxCell>
        <mxCell id="o9iHWqXyLw83aH9UPGQM-87" value="kube-proxy" style="rounded=0;whiteSpace=wrap;html=1;" vertex="1" parent="o9iHWqXyLw83aH9UPGQM-62">
          <mxGeometry x="520" y="340" width="60" height="40" as="geometry" />
        </mxCell>
        <mxCell id="o9iHWqXyLw83aH9UPGQM-88" value="docker runtime" style="rounded=0;whiteSpace=wrap;html=1;" vertex="1" parent="o9iHWqXyLw83aH9UPGQM-62">
          <mxGeometry x="520" y="390" width="60" height="40" as="geometry" />
        </mxCell>
        <mxCell id="o9iHWqXyLw83aH9UPGQM-92" style="edgeStyle=none;rounded=0;orthogonalLoop=1;jettySize=auto;html=1;" edge="1" parent="o9iHWqXyLw83aH9UPGQM-62" source="o9iHWqXyLw83aH9UPGQM-89" target="o9iHWqXyLw83aH9UPGQM-86">
          <mxGeometry relative="1" as="geometry" />
        </mxCell>
        <mxCell id="o9iHWqXyLw83aH9UPGQM-89" value="agent run on every node, component that communicates with the API server to see if there are any changes scheduled on the node. It monitors the node to make sure all containers are healthy and running" style="shape=note;whiteSpace=wrap;html=1;backgroundOutline=1;darkOpacity=0.05;" vertex="1" parent="o9iHWqXyLw83aH9UPGQM-62">
          <mxGeometry x="360" y="80" width="200" height="130" as="geometry" />
        </mxCell>
        <mxCell id="o9iHWqXyLw83aH9UPGQM-93" style="edgeStyle=none;rounded=0;orthogonalLoop=1;jettySize=auto;html=1;entryX=1;entryY=0.5;entryDx=0;entryDy=0;" edge="1" parent="o9iHWqXyLw83aH9UPGQM-62" source="o9iHWqXyLw83aH9UPGQM-90" target="o9iHWqXyLw83aH9UPGQM-87">
          <mxGeometry relative="1" as="geometry" />
        </mxCell>
        <mxCell id="o9iHWqXyLw83aH9UPGQM-90" value="Network proxy that runs the network rules on the node" style="shape=note;whiteSpace=wrap;html=1;backgroundOutline=1;darkOpacity=0.05;" vertex="1" parent="o9iHWqXyLw83aH9UPGQM-62">
          <mxGeometry x="640" y="80" width="160" height="80" as="geometry" />
        </mxCell>
        <mxCell id="o9iHWqXyLw83aH9UPGQM-94" style="edgeStyle=none;rounded=0;orthogonalLoop=1;jettySize=auto;html=1;" edge="1" parent="o9iHWqXyLw83aH9UPGQM-62" source="o9iHWqXyLw83aH9UPGQM-91" target="o9iHWqXyLw83aH9UPGQM-88">
          <mxGeometry relative="1" as="geometry" />
        </mxCell>
        <mxCell id="o9iHWqXyLw83aH9UPGQM-91" value="Software that runs the container instance (e.g. docker)" style="shape=note;whiteSpace=wrap;html=1;backgroundOutline=1;darkOpacity=0.05;" vertex="1" parent="o9iHWqXyLw83aH9UPGQM-62">
          <mxGeometry x="590" y="670" width="160" height="80" as="geometry" />
        </mxCell>
        <mxCell id="o9iHWqXyLw83aH9UPGQM-95" value="&lt;b&gt;Service&lt;/b&gt;&lt;div&gt;Provides networking between nodes, pods and users of the application&lt;/div&gt;" style="shape=note;whiteSpace=wrap;html=1;backgroundOutline=1;darkOpacity=0.05;" vertex="1" parent="o9iHWqXyLw83aH9UPGQM-62">
          <mxGeometry x="120" y="70" width="200" height="130" as="geometry" />
        </mxCell>
        <mxCell id="o9iHWqXyLw83aH9UPGQM-96" value="&lt;b&gt;Deployment&lt;/b&gt;&lt;div&gt;Description of the desired state of the pods&lt;/div&gt;" style="shape=note;whiteSpace=wrap;html=1;backgroundOutline=1;darkOpacity=0.05;" vertex="1" parent="o9iHWqXyLw83aH9UPGQM-62">
          <mxGeometry x="90" y="260" width="200" height="130" as="geometry" />
        </mxCell>
        <mxCell id="o9iHWqXyLw83aH9UPGQM-120" value="" style="group" vertex="1" connectable="0" parent="o9iHWqXyLw83aH9UPGQM-62">
          <mxGeometry x="380" y="500" width="120" height="50" as="geometry" />
        </mxCell>
        <mxCell id="o9iHWqXyLw83aH9UPGQM-117" value="" style="group" vertex="1" connectable="0" parent="o9iHWqXyLw83aH9UPGQM-120">
          <mxGeometry width="120" height="50" as="geometry" />
        </mxCell>
        <mxCell id="o9iHWqXyLw83aH9UPGQM-118" value="&lt;font color=&quot;#19498c&quot;&gt;&lt;b&gt;Container&lt;/b&gt;&lt;/font&gt;" style="rounded=0;whiteSpace=wrap;html=1;strokeWidth=1.5;strokeColor=#2875E2;align=left;spacingLeft=55;" vertex="1" parent="o9iHWqXyLw83aH9UPGQM-117">
          <mxGeometry width="120" height="50" as="geometry" />
        </mxCell>
        <mxCell id="o9iHWqXyLw83aH9UPGQM-119" value="" style="endArrow=none;html=1;rounded=0;strokeWidth=1.5;strokeColor=#2875E2;" edge="1" parent="o9iHWqXyLw83aH9UPGQM-117">
          <mxGeometry width="50" height="50" relative="1" as="geometry">
            <mxPoint x="50" y="12" as="sourcePoint" />
            <mxPoint x="50" y="40" as="targetPoint" />
          </mxGeometry>
        </mxCell>
        <mxCell id="o9iHWqXyLw83aH9UPGQM-113" value="" style="image;sketch=0;aspect=fixed;html=1;points=[];align=center;fontSize=12;image=img/lib/mscae/Docker.svg;" vertex="1" parent="o9iHWqXyLw83aH9UPGQM-120">
          <mxGeometry x="6" y="10" width="36.59" height="30" as="geometry" />
        </mxCell>
        <mxCell id="o9iHWqXyLw83aH9UPGQM-127" value="" style="group" vertex="1" connectable="0" parent="o9iHWqXyLw83aH9UPGQM-62">
          <mxGeometry x="380" y="320" width="120" height="50" as="geometry" />
        </mxCell>
        <mxCell id="o9iHWqXyLw83aH9UPGQM-128" value="" style="group" vertex="1" connectable="0" parent="o9iHWqXyLw83aH9UPGQM-127">
          <mxGeometry width="120" height="50" as="geometry" />
        </mxCell>
        <mxCell id="o9iHWqXyLw83aH9UPGQM-129" value="&lt;font color=&quot;#19498c&quot;&gt;&lt;b&gt;Container&lt;/b&gt;&lt;/font&gt;" style="rounded=0;whiteSpace=wrap;html=1;strokeWidth=1.5;strokeColor=#2875E2;align=left;spacingLeft=55;" vertex="1" parent="o9iHWqXyLw83aH9UPGQM-128">
          <mxGeometry width="120" height="50" as="geometry" />
        </mxCell>
        <mxCell id="o9iHWqXyLw83aH9UPGQM-130" value="" style="endArrow=none;html=1;rounded=0;strokeWidth=1.5;strokeColor=#2875E2;" edge="1" parent="o9iHWqXyLw83aH9UPGQM-128">
          <mxGeometry width="50" height="50" relative="1" as="geometry">
            <mxPoint x="50" y="12" as="sourcePoint" />
            <mxPoint x="50" y="40" as="targetPoint" />
          </mxGeometry>
        </mxCell>
        <mxCell id="o9iHWqXyLw83aH9UPGQM-131" value="" style="image;sketch=0;aspect=fixed;html=1;points=[];align=center;fontSize=12;image=img/lib/mscae/Docker.svg;" vertex="1" parent="o9iHWqXyLw83aH9UPGQM-127">
          <mxGeometry x="6" y="10" width="36.59" height="30" as="geometry" />
        </mxCell>
        <mxCell id="o9iHWqXyLw83aH9UPGQM-132" value="" style="group" vertex="1" connectable="0" parent="o9iHWqXyLw83aH9UPGQM-62">
          <mxGeometry x="380" y="380" width="120" height="50" as="geometry" />
        </mxCell>
        <mxCell id="o9iHWqXyLw83aH9UPGQM-133" value="" style="group" vertex="1" connectable="0" parent="o9iHWqXyLw83aH9UPGQM-132">
          <mxGeometry width="120" height="50" as="geometry" />
        </mxCell>
        <mxCell id="o9iHWqXyLw83aH9UPGQM-134" value="&lt;font color=&quot;#19498c&quot;&gt;&lt;b&gt;Container&lt;/b&gt;&lt;/font&gt;" style="rounded=0;whiteSpace=wrap;html=1;strokeWidth=1.5;strokeColor=#2875E2;align=left;spacingLeft=55;" vertex="1" parent="o9iHWqXyLw83aH9UPGQM-133">
          <mxGeometry width="120" height="50" as="geometry" />
        </mxCell>
        <mxCell id="o9iHWqXyLw83aH9UPGQM-135" value="" style="endArrow=none;html=1;rounded=0;strokeWidth=1.5;strokeColor=#2875E2;" edge="1" parent="o9iHWqXyLw83aH9UPGQM-133">
          <mxGeometry width="50" height="50" relative="1" as="geometry">
            <mxPoint x="50" y="12" as="sourcePoint" />
            <mxPoint x="50" y="40" as="targetPoint" />
          </mxGeometry>
        </mxCell>
        <mxCell id="o9iHWqXyLw83aH9UPGQM-136" value="" style="image;sketch=0;aspect=fixed;html=1;points=[];align=center;fontSize=12;image=img/lib/mscae/Docker.svg;" vertex="1" parent="o9iHWqXyLw83aH9UPGQM-132">
          <mxGeometry x="6" y="10" width="36.59" height="30" as="geometry" />
        </mxCell>
        <mxCell id="o9iHWqXyLw83aH9UPGQM-142" style="edgeStyle=none;rounded=0;orthogonalLoop=1;jettySize=auto;html=1;entryX=0;entryY=0.5;entryDx=0;entryDy=0;" edge="1" parent="o9iHWqXyLw83aH9UPGQM-62" source="o9iHWqXyLw83aH9UPGQM-137" target="o9iHWqXyLw83aH9UPGQM-9">
          <mxGeometry relative="1" as="geometry" />
        </mxCell>
        <mxCell id="o9iHWqXyLw83aH9UPGQM-143" value="Communicates" style="edgeLabel;html=1;align=center;verticalAlign=middle;resizable=0;points=[];" vertex="1" connectable="0" parent="o9iHWqXyLw83aH9UPGQM-142">
          <mxGeometry x="-0.1466" y="1" relative="1" as="geometry">
            <mxPoint as="offset" />
          </mxGeometry>
        </mxCell>
        <mxCell id="o9iHWqXyLw83aH9UPGQM-137" value="kubelet" style="rounded=0;whiteSpace=wrap;html=1;" vertex="1" parent="o9iHWqXyLw83aH9UPGQM-62">
          <mxGeometry x="520" y="470" width="60" height="40" as="geometry" />
        </mxCell>
        <mxCell id="o9iHWqXyLw83aH9UPGQM-138" value="kube-proxy" style="rounded=0;whiteSpace=wrap;html=1;" vertex="1" parent="o9iHWqXyLw83aH9UPGQM-62">
          <mxGeometry x="520" y="520" width="60" height="40" as="geometry" />
        </mxCell>
        <mxCell id="o9iHWqXyLw83aH9UPGQM-139" value="docker runtime" style="rounded=0;whiteSpace=wrap;html=1;" vertex="1" parent="o9iHWqXyLw83aH9UPGQM-62">
          <mxGeometry x="520" y="570" width="60" height="40" as="geometry" />
        </mxCell>
      </root>
    </mxGraphModel>
  </diagram>
  <diagram id="BJ6f1ESXJgENefKmo6S3" name="High-level Concepts">
    <mxGraphModel dx="1829" dy="1135" grid="1" gridSize="10" guides="1" tooltips="1" connect="1" arrows="1" fold="1" page="1" pageScale="1" pageWidth="827" pageHeight="1169" math="0" shadow="0">
      <root>
        <mxCell id="0" />
        <mxCell id="1" parent="0" />
        <mxCell id="S3rM_BgwWtb10KFnebKt-12" value="Deployment Concepts" style="rounded=0;whiteSpace=wrap;html=1;verticalAlign=top;align=center;container=1;fontStyle=1" vertex="1" parent="1">
          <mxGeometry x="260" y="370" width="200" height="410" as="geometry">
            <mxRectangle x="260" y="370" width="160" height="30" as="alternateBounds" />
          </mxGeometry>
        </mxCell>
        <mxCell id="S3rM_BgwWtb10KFnebKt-6" style="edgeStyle=none;rounded=0;orthogonalLoop=1;jettySize=auto;html=1;" edge="1" parent="1" source="S3rM_BgwWtb10KFnebKt-1" target="S3rM_BgwWtb10KFnebKt-3">
          <mxGeometry relative="1" as="geometry" />
        </mxCell>
        <mxCell id="S3rM_BgwWtb10KFnebKt-11" style="edgeStyle=none;rounded=0;orthogonalLoop=1;jettySize=auto;html=1;" edge="1" parent="1" source="S3rM_BgwWtb10KFnebKt-1" target="S3rM_BgwWtb10KFnebKt-10">
          <mxGeometry relative="1" as="geometry" />
        </mxCell>
        <mxCell id="S3rM_BgwWtb10KFnebKt-1" value="&lt;b&gt;Pod Template&lt;/b&gt;&lt;div&gt;How you want the pod to be deployed&lt;/div&gt;" style="rounded=0;whiteSpace=wrap;html=1;" vertex="1" parent="1">
          <mxGeometry x="280" y="400" width="160" height="60" as="geometry" />
        </mxCell>
        <mxCell id="S3rM_BgwWtb10KFnebKt-7" style="edgeStyle=none;rounded=0;orthogonalLoop=1;jettySize=auto;html=1;" edge="1" parent="1" source="S3rM_BgwWtb10KFnebKt-3" target="S3rM_BgwWtb10KFnebKt-4">
          <mxGeometry relative="1" as="geometry" />
        </mxCell>
        <mxCell id="S3rM_BgwWtb10KFnebKt-3" value="&lt;b&gt;Replicaset&lt;/b&gt;&lt;div&gt;How many pods? Scaling requirements?&lt;/div&gt;" style="rounded=0;whiteSpace=wrap;html=1;" vertex="1" parent="1">
          <mxGeometry x="280" y="500" width="160" height="60" as="geometry" />
        </mxCell>
        <mxCell id="S3rM_BgwWtb10KFnebKt-4" value="&lt;b&gt;Deployment&lt;/b&gt;&lt;div&gt;Describes the desired state of replica sets and pods&lt;/div&gt;" style="rounded=0;whiteSpace=wrap;html=1;" vertex="1" parent="1">
          <mxGeometry x="280" y="600" width="160" height="60" as="geometry" />
        </mxCell>
        <mxCell id="S3rM_BgwWtb10KFnebKt-9" style="edgeStyle=none;rounded=0;orthogonalLoop=1;jettySize=auto;html=1;" edge="1" parent="1" source="S3rM_BgwWtb10KFnebKt-5" target="S3rM_BgwWtb10KFnebKt-8">
          <mxGeometry relative="1" as="geometry" />
        </mxCell>
        <mxCell id="S3rM_BgwWtb10KFnebKt-5" value="&lt;b&gt;Rolling Updates&lt;/b&gt;&lt;div&gt;Pods wont be updated all at once, it rolls over per pod (1 pod at a time)&lt;/div&gt;" style="rounded=0;whiteSpace=wrap;html=1;" vertex="1" parent="1">
          <mxGeometry x="280" y="700" width="160" height="60" as="geometry" />
        </mxCell>
        <mxCell id="S3rM_BgwWtb10KFnebKt-8" value="reduces downtime. Maintains history of changes" style="shape=note;whiteSpace=wrap;html=1;backgroundOutline=1;darkOpacity=0.05;fillColor=#fff2cc;strokeColor=#d6b656;" vertex="1" parent="1">
          <mxGeometry y="680" width="150" height="100" as="geometry" />
        </mxCell>
        <mxCell id="S3rM_BgwWtb10KFnebKt-10" value="Which image to use?&lt;div&gt;from which location?&lt;/div&gt;&lt;div&gt;What ports to open up?&lt;/div&gt;" style="shape=note;whiteSpace=wrap;html=1;backgroundOutline=1;darkOpacity=0.05;fillColor=#fff2cc;strokeColor=#d6b656;" vertex="1" parent="1">
          <mxGeometry y="380" width="150" height="100" as="geometry" />
        </mxCell>
        <mxCell id="A81KBWzGmQCnEbcfvNqj-1" value="&lt;font color=&quot;#19498c&quot;&gt;Worker Node (VM) - 192.168.1.1&lt;/font&gt;" style="rounded=0;whiteSpace=wrap;html=1;strokeColor=#19498C;strokeWidth=1.5;verticalAlign=top;align=left;spacingLeft=35;fontSize=14;fillColor=none;" vertex="1" parent="1">
          <mxGeometry x="260" y="830" width="280" height="400" as="geometry" />
        </mxCell>
        <mxCell id="A81KBWzGmQCnEbcfvNqj-2" value="" style="rounded=0;whiteSpace=wrap;html=1;strokeColor=#19498C;strokeWidth=1.5;fillColor=#19498C;" vertex="1" parent="1">
          <mxGeometry x="260" y="830" width="30" height="30" as="geometry" />
        </mxCell>
        <mxCell id="A81KBWzGmQCnEbcfvNqj-3" value="" style="html=1;verticalLabelPosition=bottom;align=center;labelBackgroundColor=#ffffff;verticalAlign=top;strokeWidth=2;strokeColor=#FFFFFF;shadow=0;dashed=0;shape=mxgraph.ios7.icons.cube;fillColor=none;" vertex="1" parent="1">
          <mxGeometry x="265" y="835" width="20" height="20" as="geometry" />
        </mxCell>
        <mxCell id="A81KBWzGmQCnEbcfvNqj-4" value="" style="rounded=0;whiteSpace=wrap;html=1;strokeColor=#19498C;strokeWidth=1.5;fillColor=#19498C;" vertex="1" parent="1">
          <mxGeometry x="280" y="870" width="30" height="30" as="geometry" />
        </mxCell>
        <mxCell id="A81KBWzGmQCnEbcfvNqj-5" value="" style="html=1;verticalLabelPosition=bottom;align=center;labelBackgroundColor=#ffffff;verticalAlign=top;strokeWidth=2;strokeColor=#FFFFFF;shadow=0;dashed=0;shape=mxgraph.ios7.icons.cube;fillColor=none;" vertex="1" parent="1">
          <mxGeometry x="285" y="875" width="20" height="20" as="geometry" />
        </mxCell>
        <mxCell id="A81KBWzGmQCnEbcfvNqj-6" value="&lt;font color=&quot;#19498c&quot;&gt;Pod - 10.0.0.1&lt;/font&gt;" style="rounded=0;whiteSpace=wrap;html=1;strokeColor=#19498C;strokeWidth=1.5;verticalAlign=top;align=left;spacingLeft=35;fontSize=14;fillColor=none;" vertex="1" parent="1">
          <mxGeometry x="280" y="870" width="240" height="160" as="geometry" />
        </mxCell>
        <mxCell id="A81KBWzGmQCnEbcfvNqj-7" value="" style="rounded=0;whiteSpace=wrap;html=1;strokeColor=#19498C;strokeWidth=1.5;fillColor=#19498C;" vertex="1" parent="1">
          <mxGeometry x="280" y="1050" width="30" height="30" as="geometry" />
        </mxCell>
        <mxCell id="A81KBWzGmQCnEbcfvNqj-8" value="" style="html=1;verticalLabelPosition=bottom;align=center;labelBackgroundColor=#ffffff;verticalAlign=top;strokeWidth=2;strokeColor=#FFFFFF;shadow=0;dashed=0;shape=mxgraph.ios7.icons.cube;fillColor=none;" vertex="1" parent="1">
          <mxGeometry x="285" y="1055" width="20" height="20" as="geometry" />
        </mxCell>
        <mxCell id="A81KBWzGmQCnEbcfvNqj-9" value="&lt;font color=&quot;#19498c&quot;&gt;Pod - 10.0.0.2&lt;/font&gt;" style="rounded=0;whiteSpace=wrap;html=1;strokeColor=#19498C;strokeWidth=1.5;verticalAlign=top;align=left;spacingLeft=35;fontSize=14;fillColor=none;" vertex="1" parent="1">
          <mxGeometry x="280" y="1050" width="240" height="160" as="geometry" />
        </mxCell>
        <mxCell id="A81KBWzGmQCnEbcfvNqj-10" value="kubelet" style="rounded=0;whiteSpace=wrap;html=1;" vertex="1" parent="1">
          <mxGeometry x="440" y="880" width="60" height="40" as="geometry" />
        </mxCell>
        <mxCell id="A81KBWzGmQCnEbcfvNqj-11" value="kube-proxy" style="rounded=0;whiteSpace=wrap;html=1;" vertex="1" parent="1">
          <mxGeometry x="440" y="930" width="60" height="40" as="geometry" />
        </mxCell>
        <mxCell id="A81KBWzGmQCnEbcfvNqj-12" value="docker runtime" style="rounded=0;whiteSpace=wrap;html=1;" vertex="1" parent="1">
          <mxGeometry x="440" y="980" width="60" height="40" as="geometry" />
        </mxCell>
        <mxCell id="A81KBWzGmQCnEbcfvNqj-14" value="" style="group" vertex="1" connectable="0" parent="1">
          <mxGeometry x="300" y="1090" width="120" height="50" as="geometry" />
        </mxCell>
        <mxCell id="A81KBWzGmQCnEbcfvNqj-15" value="" style="group" vertex="1" connectable="0" parent="A81KBWzGmQCnEbcfvNqj-14">
          <mxGeometry width="120" height="50" as="geometry" />
        </mxCell>
        <mxCell id="A81KBWzGmQCnEbcfvNqj-16" value="&lt;font color=&quot;#19498c&quot;&gt;&lt;b&gt;Container&lt;/b&gt;&lt;/font&gt;" style="rounded=0;whiteSpace=wrap;html=1;strokeWidth=1.5;strokeColor=#2875E2;align=left;spacingLeft=55;" vertex="1" parent="A81KBWzGmQCnEbcfvNqj-15">
          <mxGeometry width="120" height="50" as="geometry" />
        </mxCell>
        <mxCell id="A81KBWzGmQCnEbcfvNqj-17" value="" style="endArrow=none;html=1;rounded=0;strokeWidth=1.5;strokeColor=#2875E2;" edge="1" parent="A81KBWzGmQCnEbcfvNqj-15">
          <mxGeometry width="50" height="50" relative="1" as="geometry">
            <mxPoint x="50" y="12" as="sourcePoint" />
            <mxPoint x="50" y="40" as="targetPoint" />
          </mxGeometry>
        </mxCell>
        <mxCell id="A81KBWzGmQCnEbcfvNqj-18" value="" style="image;sketch=0;aspect=fixed;html=1;points=[];align=center;fontSize=12;image=img/lib/mscae/Docker.svg;" vertex="1" parent="A81KBWzGmQCnEbcfvNqj-14">
          <mxGeometry x="6" y="10" width="36.59" height="30" as="geometry" />
        </mxCell>
        <mxCell id="A81KBWzGmQCnEbcfvNqj-19" value="" style="group" vertex="1" connectable="0" parent="1">
          <mxGeometry x="300" y="910" width="120" height="50" as="geometry" />
        </mxCell>
        <mxCell id="A81KBWzGmQCnEbcfvNqj-20" value="" style="group" vertex="1" connectable="0" parent="A81KBWzGmQCnEbcfvNqj-19">
          <mxGeometry width="120" height="50" as="geometry" />
        </mxCell>
        <mxCell id="A81KBWzGmQCnEbcfvNqj-21" value="&lt;font color=&quot;#19498c&quot;&gt;&lt;b&gt;Container&lt;/b&gt;&lt;/font&gt;" style="rounded=0;whiteSpace=wrap;html=1;strokeWidth=1.5;strokeColor=#2875E2;align=left;spacingLeft=55;" vertex="1" parent="A81KBWzGmQCnEbcfvNqj-20">
          <mxGeometry width="120" height="50" as="geometry" />
        </mxCell>
        <mxCell id="A81KBWzGmQCnEbcfvNqj-22" value="" style="endArrow=none;html=1;rounded=0;strokeWidth=1.5;strokeColor=#2875E2;" edge="1" parent="A81KBWzGmQCnEbcfvNqj-20">
          <mxGeometry width="50" height="50" relative="1" as="geometry">
            <mxPoint x="50" y="12" as="sourcePoint" />
            <mxPoint x="50" y="40" as="targetPoint" />
          </mxGeometry>
        </mxCell>
        <mxCell id="A81KBWzGmQCnEbcfvNqj-23" value="" style="image;sketch=0;aspect=fixed;html=1;points=[];align=center;fontSize=12;image=img/lib/mscae/Docker.svg;" vertex="1" parent="A81KBWzGmQCnEbcfvNqj-19">
          <mxGeometry x="6" y="10" width="36.59" height="30" as="geometry" />
        </mxCell>
        <mxCell id="A81KBWzGmQCnEbcfvNqj-24" value="" style="group" vertex="1" connectable="0" parent="1">
          <mxGeometry x="300" y="970" width="120" height="50" as="geometry" />
        </mxCell>
        <mxCell id="A81KBWzGmQCnEbcfvNqj-25" value="" style="group" vertex="1" connectable="0" parent="A81KBWzGmQCnEbcfvNqj-24">
          <mxGeometry width="120" height="50" as="geometry" />
        </mxCell>
        <mxCell id="A81KBWzGmQCnEbcfvNqj-26" value="&lt;font color=&quot;#19498c&quot;&gt;&lt;b&gt;Container&lt;/b&gt;&lt;/font&gt;" style="rounded=0;whiteSpace=wrap;html=1;strokeWidth=1.5;strokeColor=#2875E2;align=left;spacingLeft=55;" vertex="1" parent="A81KBWzGmQCnEbcfvNqj-25">
          <mxGeometry width="120" height="50" as="geometry" />
        </mxCell>
        <mxCell id="A81KBWzGmQCnEbcfvNqj-27" value="" style="endArrow=none;html=1;rounded=0;strokeWidth=1.5;strokeColor=#2875E2;" edge="1" parent="A81KBWzGmQCnEbcfvNqj-25">
          <mxGeometry width="50" height="50" relative="1" as="geometry">
            <mxPoint x="50" y="12" as="sourcePoint" />
            <mxPoint x="50" y="40" as="targetPoint" />
          </mxGeometry>
        </mxCell>
        <mxCell id="A81KBWzGmQCnEbcfvNqj-28" value="" style="image;sketch=0;aspect=fixed;html=1;points=[];align=center;fontSize=12;image=img/lib/mscae/Docker.svg;" vertex="1" parent="A81KBWzGmQCnEbcfvNqj-24">
          <mxGeometry x="6" y="10" width="36.59" height="30" as="geometry" />
        </mxCell>
        <mxCell id="A81KBWzGmQCnEbcfvNqj-29" value="kubelet" style="rounded=0;whiteSpace=wrap;html=1;" vertex="1" parent="1">
          <mxGeometry x="440" y="1060" width="60" height="40" as="geometry" />
        </mxCell>
        <mxCell id="A81KBWzGmQCnEbcfvNqj-30" value="kube-proxy" style="rounded=0;whiteSpace=wrap;html=1;" vertex="1" parent="1">
          <mxGeometry x="440" y="1110" width="60" height="40" as="geometry" />
        </mxCell>
        <mxCell id="A81KBWzGmQCnEbcfvNqj-31" value="docker runtime" style="rounded=0;whiteSpace=wrap;html=1;" vertex="1" parent="1">
          <mxGeometry x="440" y="1160" width="60" height="40" as="geometry" />
        </mxCell>
        <mxCell id="A81KBWzGmQCnEbcfvNqj-32" value="Each node has an internal private IP" style="shape=note;whiteSpace=wrap;html=1;backgroundOutline=1;darkOpacity=0.05;fillColor=#fff2cc;strokeColor=#d6b656;" vertex="1" parent="1">
          <mxGeometry x="70" y="870" width="150" height="100" as="geometry" />
        </mxCell>
        <mxCell id="A81KBWzGmQCnEbcfvNqj-33" style="edgeStyle=none;rounded=0;orthogonalLoop=1;jettySize=auto;html=1;entryX=0;entryY=0.25;entryDx=0;entryDy=0;dashed=1;" edge="1" parent="1" source="A81KBWzGmQCnEbcfvNqj-32" target="A81KBWzGmQCnEbcfvNqj-1">
          <mxGeometry relative="1" as="geometry" />
        </mxCell>
        <mxCell id="A81KBWzGmQCnEbcfvNqj-35" style="edgeStyle=none;rounded=0;orthogonalLoop=1;jettySize=auto;html=1;entryX=0;entryY=0.5;entryDx=0;entryDy=0;startArrow=none;startFill=0;dashed=1;" edge="1" parent="1" source="A81KBWzGmQCnEbcfvNqj-34" target="A81KBWzGmQCnEbcfvNqj-6">
          <mxGeometry relative="1" as="geometry" />
        </mxCell>
        <mxCell id="A81KBWzGmQCnEbcfvNqj-36" style="edgeStyle=none;rounded=0;orthogonalLoop=1;jettySize=auto;html=1;entryX=0;entryY=0.5;entryDx=0;entryDy=0;startArrow=none;startFill=0;dashed=1;" edge="1" parent="1" source="A81KBWzGmQCnEbcfvNqj-34" target="A81KBWzGmQCnEbcfvNqj-9">
          <mxGeometry relative="1" as="geometry" />
        </mxCell>
        <mxCell id="A81KBWzGmQCnEbcfvNqj-34" value="Each pod has its own internal IP. address is selected from a pool in a network for pods&lt;div&gt;&lt;br&gt;&lt;/div&gt;&lt;div&gt;If there are multiple containers in a pod, they share the IP&lt;/div&gt;" style="shape=note;whiteSpace=wrap;html=1;backgroundOutline=1;darkOpacity=0.05;fillColor=#fff2cc;strokeColor=#d6b656;" vertex="1" parent="1">
          <mxGeometry x="70" y="999" width="150" height="170" as="geometry" />
        </mxCell>
        <mxCell id="A81KBWzGmQCnEbcfvNqj-38" value="&lt;b&gt;Kube networking conditions&lt;/b&gt;&lt;div&gt;&lt;br&gt;&lt;/div&gt;&lt;div&gt;All pods can talk to each other (even on different nodes).&lt;/div&gt;&lt;div&gt;Nodes should be able to talk to pods on that node&lt;/div&gt;&lt;div&gt;&lt;br&gt;&lt;/div&gt;&lt;div&gt;Agents on Nodes such as kubelet can talk to all Nodes and Pods.&lt;/div&gt;" style="shape=note;whiteSpace=wrap;html=1;backgroundOutline=1;darkOpacity=0.05;align=left;" vertex="1" parent="1">
          <mxGeometry x="-200" y="820" width="200" height="170" as="geometry" />
        </mxCell>
        <mxCell id="A81KBWzGmQCnEbcfvNqj-39" value="&lt;b&gt;Services&lt;/b&gt;&lt;div&gt;&lt;br&gt;&lt;/div&gt;&lt;div&gt;groups pods which perform the same function into a single entity (by using selector labels)&lt;/div&gt;&lt;div&gt;&lt;br&gt;&lt;/div&gt;&lt;div&gt;A service gets its own IP address, DNS name and IP port.&lt;/div&gt;&lt;div&gt;&lt;br&gt;&lt;/div&gt;&lt;div&gt;Services provide access to Pods from internal application or from external users - kind of like a load balancer.&lt;/div&gt;" style="shape=note;whiteSpace=wrap;html=1;backgroundOutline=1;darkOpacity=0.05;align=left;" vertex="1" parent="1">
          <mxGeometry x="-200" y="1030" width="200" height="240" as="geometry" />
        </mxCell>
        <mxCell id="A81KBWzGmQCnEbcfvNqj-40" value="&lt;b&gt;Cluster IP&lt;/b&gt;&lt;div&gt;&lt;b&gt;&lt;br&gt;&lt;/b&gt;&lt;/div&gt;&lt;div&gt;Adds internal IP to Pods, only accessible within the cluster&lt;/div&gt;" style="shape=note;whiteSpace=wrap;html=1;backgroundOutline=1;darkOpacity=0.05;align=left;" vertex="1" parent="1">
          <mxGeometry x="360" y="1400" width="200" height="120" as="geometry" />
        </mxCell>
        <mxCell id="A81KBWzGmQCnEbcfvNqj-41" value="Different ways of exposing Pods to network traffic includes:" style="rounded=0;whiteSpace=wrap;html=1;" vertex="1" parent="1">
          <mxGeometry x="-200" y="1280" width="200" height="30" as="geometry" />
        </mxCell>
        <mxCell id="A81KBWzGmQCnEbcfvNqj-42" value="&lt;b&gt;Node Port&lt;/b&gt;&lt;div&gt;&lt;b&gt;&lt;br&gt;&lt;/b&gt;&lt;/div&gt;&lt;div&gt;This exposes a service on a static port on the node so that the application will be available using IP &amp;amp; port&lt;/div&gt;" style="shape=note;whiteSpace=wrap;html=1;backgroundOutline=1;darkOpacity=0.05;align=left;" vertex="1" parent="1">
          <mxGeometry x="590" y="1400" width="200" height="120" as="geometry" />
        </mxCell>
        <mxCell id="A81KBWzGmQCnEbcfvNqj-43" value="&lt;div&gt;&lt;b&gt;Load Balancer&lt;/b&gt;&lt;/div&gt;&lt;div&gt;&lt;b&gt;&lt;br&gt;&lt;/b&gt;&lt;/div&gt;&lt;div&gt;This is only available on the cloud. Exposes the service externally using the cloud provider&#39;s LB&lt;/div&gt;" style="shape=note;whiteSpace=wrap;html=1;backgroundOutline=1;darkOpacity=0.05;align=left;" vertex="1" parent="1">
          <mxGeometry x="840" y="1400" width="200" height="120" as="geometry" />
        </mxCell>
        <mxCell id="A81KBWzGmQCnEbcfvNqj-52" value="" style="group" vertex="1" connectable="0" parent="1">
          <mxGeometry x="600" y="910" width="120" height="50" as="geometry" />
        </mxCell>
        <mxCell id="A81KBWzGmQCnEbcfvNqj-48" value="&lt;font color=&quot;#d79b00&quot;&gt;Volumes&lt;/font&gt;" style="rounded=0;whiteSpace=wrap;html=1;strokeWidth=1.5;strokeColor=#d79b00;align=left;spacingLeft=55;fontStyle=1;fillColor=#ffe6cc;" vertex="1" parent="A81KBWzGmQCnEbcfvNqj-52">
          <mxGeometry width="120" height="50" as="geometry" />
        </mxCell>
        <mxCell id="A81KBWzGmQCnEbcfvNqj-49" value="" style="endArrow=none;html=1;rounded=0;strokeWidth=1.5;strokeColor=#D79B00;" edge="1" parent="A81KBWzGmQCnEbcfvNqj-52">
          <mxGeometry width="50" height="50" relative="1" as="geometry">
            <mxPoint x="50" y="12" as="sourcePoint" />
            <mxPoint x="50" y="40" as="targetPoint" />
          </mxGeometry>
        </mxCell>
        <mxCell id="A81KBWzGmQCnEbcfvNqj-45" value="" style="sketch=0;pointerEvents=1;shadow=0;dashed=0;html=1;strokeColor=none;fillColor=#D79B00;labelPosition=center;verticalLabelPosition=bottom;verticalAlign=top;outlineConnect=0;align=center;shape=mxgraph.office.devices.hard_disk;" vertex="1" parent="A81KBWzGmQCnEbcfvNqj-52">
          <mxGeometry x="14" y="10" width="22.22" height="30" as="geometry" />
        </mxCell>
        <mxCell id="A81KBWzGmQCnEbcfvNqj-54" style="edgeStyle=none;rounded=0;orthogonalLoop=1;jettySize=auto;html=1;entryX=1;entryY=0.5;entryDx=0;entryDy=0;" edge="1" parent="1" source="A81KBWzGmQCnEbcfvNqj-48" target="A81KBWzGmQCnEbcfvNqj-21">
          <mxGeometry relative="1" as="geometry" />
        </mxCell>
        <mxCell id="A81KBWzGmQCnEbcfvNqj-56" value="Mounted" style="edgeLabel;html=1;align=center;verticalAlign=middle;resizable=0;points=[];" vertex="1" connectable="0" parent="A81KBWzGmQCnEbcfvNqj-54">
          <mxGeometry x="-0.2444" relative="1" as="geometry">
            <mxPoint as="offset" />
          </mxGeometry>
        </mxCell>
        <mxCell id="A81KBWzGmQCnEbcfvNqj-55" style="edgeStyle=none;rounded=0;orthogonalLoop=1;jettySize=auto;html=1;entryX=1;entryY=0.5;entryDx=0;entryDy=0;" edge="1" parent="1" source="A81KBWzGmQCnEbcfvNqj-48" target="A81KBWzGmQCnEbcfvNqj-26">
          <mxGeometry relative="1" as="geometry" />
        </mxCell>
        <mxCell id="A81KBWzGmQCnEbcfvNqj-57" value="Mounted" style="edgeLabel;html=1;align=center;verticalAlign=middle;resizable=0;points=[];" vertex="1" connectable="0" parent="A81KBWzGmQCnEbcfvNqj-55">
          <mxGeometry x="-0.2732" y="2" relative="1" as="geometry">
            <mxPoint as="offset" />
          </mxGeometry>
        </mxCell>
        <mxCell id="A81KBWzGmQCnEbcfvNqj-59" style="edgeStyle=none;rounded=0;orthogonalLoop=1;jettySize=auto;html=1;entryX=1;entryY=0.5;entryDx=0;entryDy=0;dashed=1;" edge="1" parent="1" source="A81KBWzGmQCnEbcfvNqj-58" target="A81KBWzGmQCnEbcfvNqj-48">
          <mxGeometry relative="1" as="geometry" />
        </mxCell>
        <mxCell id="A81KBWzGmQCnEbcfvNqj-58" value="&lt;b&gt;Persistent Storage&lt;/b&gt;&lt;div&gt;&lt;b&gt;&lt;br&gt;&lt;/b&gt;&lt;/div&gt;&lt;div&gt;Lifetime does not follow Pod&lt;/div&gt;&lt;div&gt;Used for databases and messaging queues, or blobs&lt;/div&gt;&lt;div&gt;&lt;br&gt;&lt;/div&gt;&lt;div&gt;Mounted on a specific path&lt;/div&gt;" style="shape=note;whiteSpace=wrap;html=1;backgroundOutline=1;darkOpacity=0.05;align=left;fillColor=#fff2cc;strokeColor=#d6b656;" vertex="1" parent="1">
          <mxGeometry x="760" y="875" width="200" height="120" as="geometry" />
        </mxCell>
      </root>
    </mxGraphModel>
  </diagram>
  <diagram id="r5MN_If4tDzcBgXNK4Jk" name="AKS (Azure)">
    <mxGraphModel dx="852" dy="965" grid="1" gridSize="10" guides="1" tooltips="1" connect="1" arrows="1" fold="1" page="1" pageScale="1" pageWidth="827" pageHeight="1169" math="0" shadow="0">
      <root>
        <mxCell id="0" />
        <mxCell id="1" parent="0" />
        <mxCell id="Duu8V3eAsz6hvKQis6q--51" style="edgeStyle=none;rounded=0;orthogonalLoop=1;jettySize=auto;html=1;exitX=0;exitY=0.25;exitDx=0;exitDy=0;entryX=1;entryY=0.5;entryDx=0;entryDy=0;" edge="1" parent="1" source="ng77vNcbljup__xDBCDs-1" target="Duu8V3eAsz6hvKQis6q--47">
          <mxGeometry relative="1" as="geometry" />
        </mxCell>
        <mxCell id="Duu8V3eAsz6hvKQis6q--52" style="edgeStyle=none;rounded=0;orthogonalLoop=1;jettySize=auto;html=1;exitX=0;exitY=0.25;exitDx=0;exitDy=0;entryX=1;entryY=0.5;entryDx=0;entryDy=0;" edge="1" parent="1" source="ng77vNcbljup__xDBCDs-1" target="Duu8V3eAsz6hvKQis6q--43">
          <mxGeometry relative="1" as="geometry">
            <mxPoint x="280" y="810" as="targetPoint" />
          </mxGeometry>
        </mxCell>
        <mxCell id="ng77vNcbljup__xDBCDs-1" value="&lt;font color=&quot;#19498c&quot;&gt;Worker Node (VM Scale Sets)&lt;/font&gt;" style="rounded=0;whiteSpace=wrap;html=1;strokeColor=#19498C;strokeWidth=1.5;verticalAlign=top;align=left;spacingLeft=35;fontSize=14;fillColor=none;" vertex="1" parent="1">
          <mxGeometry x="320" y="760" width="280" height="400" as="geometry" />
        </mxCell>
        <mxCell id="ng77vNcbljup__xDBCDs-2" value="" style="rounded=0;whiteSpace=wrap;html=1;strokeColor=#19498C;strokeWidth=1.5;fillColor=#19498C;" vertex="1" parent="1">
          <mxGeometry x="320" y="760" width="30" height="30" as="geometry" />
        </mxCell>
        <mxCell id="ng77vNcbljup__xDBCDs-3" value="" style="html=1;verticalLabelPosition=bottom;align=center;labelBackgroundColor=#ffffff;verticalAlign=top;strokeWidth=2;strokeColor=#FFFFFF;shadow=0;dashed=0;shape=mxgraph.ios7.icons.cube;fillColor=none;" vertex="1" parent="1">
          <mxGeometry x="325" y="765" width="20" height="20" as="geometry" />
        </mxCell>
        <mxCell id="ng77vNcbljup__xDBCDs-4" value="" style="rounded=0;whiteSpace=wrap;html=1;strokeColor=#19498C;strokeWidth=1.5;fillColor=#19498C;" vertex="1" parent="1">
          <mxGeometry x="340" y="800" width="30" height="30" as="geometry" />
        </mxCell>
        <mxCell id="ng77vNcbljup__xDBCDs-5" value="" style="html=1;verticalLabelPosition=bottom;align=center;labelBackgroundColor=#ffffff;verticalAlign=top;strokeWidth=2;strokeColor=#FFFFFF;shadow=0;dashed=0;shape=mxgraph.ios7.icons.cube;fillColor=none;" vertex="1" parent="1">
          <mxGeometry x="345" y="805" width="20" height="20" as="geometry" />
        </mxCell>
        <mxCell id="UemOiYERx17_LtKVUlRO-10" style="edgeStyle=none;rounded=0;orthogonalLoop=1;jettySize=auto;html=1;entryX=0;entryY=0.5;entryDx=0;entryDy=0;" edge="1" parent="1" source="ng77vNcbljup__xDBCDs-6" target="UemOiYERx17_LtKVUlRO-2">
          <mxGeometry relative="1" as="geometry" />
        </mxCell>
        <mxCell id="UemOiYERx17_LtKVUlRO-12" value="Persistent&lt;div&gt;Storage&lt;/div&gt;" style="edgeLabel;html=1;align=center;verticalAlign=middle;resizable=0;points=[];" vertex="1" connectable="0" parent="UemOiYERx17_LtKVUlRO-10">
          <mxGeometry x="-0.0885" y="-3" relative="1" as="geometry">
            <mxPoint x="4" y="17" as="offset" />
          </mxGeometry>
        </mxCell>
        <mxCell id="UemOiYERx17_LtKVUlRO-11" style="edgeStyle=none;rounded=0;orthogonalLoop=1;jettySize=auto;html=1;entryX=0;entryY=0.5;entryDx=0;entryDy=0;" edge="1" parent="1" source="ng77vNcbljup__xDBCDs-6" target="UemOiYERx17_LtKVUlRO-7">
          <mxGeometry relative="1" as="geometry" />
        </mxCell>
        <mxCell id="ng77vNcbljup__xDBCDs-6" value="&lt;font color=&quot;#19498c&quot;&gt;Pod - 10.0.0.1&lt;/font&gt;" style="rounded=0;whiteSpace=wrap;html=1;strokeColor=#19498C;strokeWidth=1.5;verticalAlign=top;align=left;spacingLeft=35;fontSize=14;fillColor=none;" vertex="1" parent="1">
          <mxGeometry x="340" y="800" width="240" height="160" as="geometry" />
        </mxCell>
        <mxCell id="ng77vNcbljup__xDBCDs-7" value="" style="rounded=0;whiteSpace=wrap;html=1;strokeColor=#19498C;strokeWidth=1.5;fillColor=#19498C;" vertex="1" parent="1">
          <mxGeometry x="340" y="980" width="30" height="30" as="geometry" />
        </mxCell>
        <mxCell id="ng77vNcbljup__xDBCDs-8" value="" style="html=1;verticalLabelPosition=bottom;align=center;labelBackgroundColor=#ffffff;verticalAlign=top;strokeWidth=2;strokeColor=#FFFFFF;shadow=0;dashed=0;shape=mxgraph.ios7.icons.cube;fillColor=none;" vertex="1" parent="1">
          <mxGeometry x="345" y="985" width="20" height="20" as="geometry" />
        </mxCell>
        <mxCell id="ng77vNcbljup__xDBCDs-9" value="&lt;font color=&quot;#19498c&quot;&gt;Pod - 10.0.0.2&lt;/font&gt;" style="rounded=0;whiteSpace=wrap;html=1;strokeColor=#19498C;strokeWidth=1.5;verticalAlign=top;align=left;spacingLeft=35;fontSize=14;fillColor=none;" vertex="1" parent="1">
          <mxGeometry x="340" y="980" width="240" height="160" as="geometry" />
        </mxCell>
        <mxCell id="UemOiYERx17_LtKVUlRO-13" style="edgeStyle=none;rounded=0;orthogonalLoop=1;jettySize=auto;html=1;entryX=0.5;entryY=1;entryDx=0;entryDy=0;" edge="1" parent="1" source="ng77vNcbljup__xDBCDs-10" target="Duu8V3eAsz6hvKQis6q--33">
          <mxGeometry relative="1" as="geometry" />
        </mxCell>
        <mxCell id="ng77vNcbljup__xDBCDs-10" value="kubelet" style="rounded=0;whiteSpace=wrap;html=1;" vertex="1" parent="1">
          <mxGeometry x="500" y="810" width="60" height="40" as="geometry" />
        </mxCell>
        <mxCell id="ng77vNcbljup__xDBCDs-11" value="kube-proxy" style="rounded=0;whiteSpace=wrap;html=1;" vertex="1" parent="1">
          <mxGeometry x="500" y="860" width="60" height="40" as="geometry" />
        </mxCell>
        <mxCell id="ng77vNcbljup__xDBCDs-12" value="docker runtime" style="rounded=0;whiteSpace=wrap;html=1;" vertex="1" parent="1">
          <mxGeometry x="500" y="910" width="60" height="40" as="geometry" />
        </mxCell>
        <mxCell id="ng77vNcbljup__xDBCDs-13" value="" style="group" vertex="1" connectable="0" parent="1">
          <mxGeometry x="360" y="1020" width="120" height="50" as="geometry" />
        </mxCell>
        <mxCell id="ng77vNcbljup__xDBCDs-14" value="" style="group" vertex="1" connectable="0" parent="ng77vNcbljup__xDBCDs-13">
          <mxGeometry width="120" height="50" as="geometry" />
        </mxCell>
        <mxCell id="ng77vNcbljup__xDBCDs-15" value="&lt;font color=&quot;#19498c&quot;&gt;&lt;b&gt;Container&lt;/b&gt;&lt;/font&gt;" style="rounded=0;whiteSpace=wrap;html=1;strokeWidth=1.5;strokeColor=#2875E2;align=left;spacingLeft=55;" vertex="1" parent="ng77vNcbljup__xDBCDs-14">
          <mxGeometry width="120" height="50" as="geometry" />
        </mxCell>
        <mxCell id="ng77vNcbljup__xDBCDs-16" value="" style="endArrow=none;html=1;rounded=0;strokeWidth=1.5;strokeColor=#2875E2;" edge="1" parent="ng77vNcbljup__xDBCDs-14">
          <mxGeometry width="50" height="50" relative="1" as="geometry">
            <mxPoint x="50" y="12" as="sourcePoint" />
            <mxPoint x="50" y="40" as="targetPoint" />
          </mxGeometry>
        </mxCell>
        <mxCell id="ng77vNcbljup__xDBCDs-17" value="" style="image;sketch=0;aspect=fixed;html=1;points=[];align=center;fontSize=12;image=img/lib/mscae/Docker.svg;" vertex="1" parent="ng77vNcbljup__xDBCDs-13">
          <mxGeometry x="6" y="10" width="36.59" height="30" as="geometry" />
        </mxCell>
        <mxCell id="ng77vNcbljup__xDBCDs-18" value="" style="group" vertex="1" connectable="0" parent="1">
          <mxGeometry x="360" y="840" width="120" height="50" as="geometry" />
        </mxCell>
        <mxCell id="ng77vNcbljup__xDBCDs-19" value="" style="group" vertex="1" connectable="0" parent="ng77vNcbljup__xDBCDs-18">
          <mxGeometry width="120" height="50" as="geometry" />
        </mxCell>
        <mxCell id="ng77vNcbljup__xDBCDs-20" value="&lt;font color=&quot;#19498c&quot;&gt;&lt;b&gt;Container&lt;/b&gt;&lt;/font&gt;" style="rounded=0;whiteSpace=wrap;html=1;strokeWidth=1.5;strokeColor=#2875E2;align=left;spacingLeft=55;" vertex="1" parent="ng77vNcbljup__xDBCDs-19">
          <mxGeometry width="120" height="50" as="geometry" />
        </mxCell>
        <mxCell id="ng77vNcbljup__xDBCDs-21" value="" style="endArrow=none;html=1;rounded=0;strokeWidth=1.5;strokeColor=#2875E2;" edge="1" parent="ng77vNcbljup__xDBCDs-19">
          <mxGeometry width="50" height="50" relative="1" as="geometry">
            <mxPoint x="50" y="12" as="sourcePoint" />
            <mxPoint x="50" y="40" as="targetPoint" />
          </mxGeometry>
        </mxCell>
        <mxCell id="ng77vNcbljup__xDBCDs-22" value="" style="image;sketch=0;aspect=fixed;html=1;points=[];align=center;fontSize=12;image=img/lib/mscae/Docker.svg;" vertex="1" parent="ng77vNcbljup__xDBCDs-18">
          <mxGeometry x="6" y="10" width="36.59" height="30" as="geometry" />
        </mxCell>
        <mxCell id="ng77vNcbljup__xDBCDs-23" value="" style="group" vertex="1" connectable="0" parent="1">
          <mxGeometry x="360" y="900" width="120" height="50" as="geometry" />
        </mxCell>
        <mxCell id="ng77vNcbljup__xDBCDs-24" value="" style="group" vertex="1" connectable="0" parent="ng77vNcbljup__xDBCDs-23">
          <mxGeometry width="120" height="50" as="geometry" />
        </mxCell>
        <mxCell id="ng77vNcbljup__xDBCDs-25" value="&lt;font color=&quot;#19498c&quot;&gt;&lt;b&gt;Container&lt;/b&gt;&lt;/font&gt;" style="rounded=0;whiteSpace=wrap;html=1;strokeWidth=1.5;strokeColor=#2875E2;align=left;spacingLeft=55;" vertex="1" parent="ng77vNcbljup__xDBCDs-24">
          <mxGeometry width="120" height="50" as="geometry" />
        </mxCell>
        <mxCell id="ng77vNcbljup__xDBCDs-26" value="" style="endArrow=none;html=1;rounded=0;strokeWidth=1.5;strokeColor=#2875E2;" edge="1" parent="ng77vNcbljup__xDBCDs-24">
          <mxGeometry width="50" height="50" relative="1" as="geometry">
            <mxPoint x="50" y="12" as="sourcePoint" />
            <mxPoint x="50" y="40" as="targetPoint" />
          </mxGeometry>
        </mxCell>
        <mxCell id="ng77vNcbljup__xDBCDs-27" value="" style="image;sketch=0;aspect=fixed;html=1;points=[];align=center;fontSize=12;image=img/lib/mscae/Docker.svg;" vertex="1" parent="ng77vNcbljup__xDBCDs-23">
          <mxGeometry x="6" y="10" width="36.59" height="30" as="geometry" />
        </mxCell>
        <mxCell id="UemOiYERx17_LtKVUlRO-14" style="edgeStyle=none;rounded=0;orthogonalLoop=1;jettySize=auto;html=1;entryX=0.5;entryY=1;entryDx=0;entryDy=0;" edge="1" parent="1" source="ng77vNcbljup__xDBCDs-28" target="Duu8V3eAsz6hvKQis6q--33">
          <mxGeometry relative="1" as="geometry" />
        </mxCell>
        <mxCell id="ng77vNcbljup__xDBCDs-28" value="kubelet" style="rounded=0;whiteSpace=wrap;html=1;" vertex="1" parent="1">
          <mxGeometry x="500" y="990" width="60" height="40" as="geometry" />
        </mxCell>
        <mxCell id="ng77vNcbljup__xDBCDs-29" value="kube-proxy" style="rounded=0;whiteSpace=wrap;html=1;" vertex="1" parent="1">
          <mxGeometry x="500" y="1040" width="60" height="40" as="geometry" />
        </mxCell>
        <mxCell id="ng77vNcbljup__xDBCDs-30" value="docker runtime" style="rounded=0;whiteSpace=wrap;html=1;" vertex="1" parent="1">
          <mxGeometry x="500" y="1090" width="60" height="40" as="geometry" />
        </mxCell>
        <mxCell id="Duu8V3eAsz6hvKQis6q--1" value="" style="group" vertex="1" connectable="0" parent="1">
          <mxGeometry x="340" y="440" width="160" height="60" as="geometry" />
        </mxCell>
        <mxCell id="Duu8V3eAsz6hvKQis6q--2" value="&lt;font color=&quot;#19498c&quot;&gt;&lt;b&gt;Cloud&amp;nbsp;&lt;/b&gt;&lt;/font&gt;&lt;div&gt;&lt;font color=&quot;#19498c&quot;&gt;&lt;b&gt;Control Manager&lt;/b&gt;&lt;/font&gt;&lt;/div&gt;" style="rounded=0;whiteSpace=wrap;html=1;strokeWidth=1.5;strokeColor=#2875E2;align=left;spacingLeft=75;" vertex="1" parent="Duu8V3eAsz6hvKQis6q--1">
          <mxGeometry width="160" height="60" as="geometry" />
        </mxCell>
        <mxCell id="Duu8V3eAsz6hvKQis6q--3" value="" style="endArrow=none;html=1;rounded=0;strokeWidth=1.5;strokeColor=#2875E2;" edge="1" parent="Duu8V3eAsz6hvKQis6q--1">
          <mxGeometry width="50" height="50" relative="1" as="geometry">
            <mxPoint x="66" y="12" as="sourcePoint" />
            <mxPoint x="66" y="52" as="targetPoint" />
          </mxGeometry>
        </mxCell>
        <mxCell id="Duu8V3eAsz6hvKQis6q--4" value="" style="aspect=fixed;sketch=0;html=1;dashed=0;whitespace=wrap;fillColor=#2875E2;strokeColor=#ffffff;points=[[0.005,0.63,0],[0.1,0.2,0],[0.9,0.2,0],[0.5,0,0],[0.995,0.63,0],[0.72,0.99,0],[0.5,1,0],[0.28,0.99,0]];shape=mxgraph.kubernetes.icon2;prIcon=c_c_m" vertex="1" parent="Duu8V3eAsz6hvKQis6q--1">
          <mxGeometry x="5" y="6" width="50" height="48" as="geometry" />
        </mxCell>
        <mxCell id="Duu8V3eAsz6hvKQis6q--5" value="" style="group" vertex="1" connectable="0" parent="1">
          <mxGeometry x="340" y="540" width="160" height="60" as="geometry" />
        </mxCell>
        <mxCell id="Duu8V3eAsz6hvKQis6q--6" value="&lt;font color=&quot;#19498c&quot;&gt;&lt;b&gt;API&lt;/b&gt;&lt;/font&gt;&lt;div&gt;&lt;font color=&quot;#19498c&quot;&gt;&lt;b&gt;Server&lt;/b&gt;&lt;/font&gt;&lt;/div&gt;" style="rounded=0;whiteSpace=wrap;html=1;strokeWidth=1.5;strokeColor=#2875E2;align=left;spacingLeft=75;" vertex="1" parent="Duu8V3eAsz6hvKQis6q--5">
          <mxGeometry width="160" height="60" as="geometry" />
        </mxCell>
        <mxCell id="Duu8V3eAsz6hvKQis6q--7" value="" style="endArrow=none;html=1;rounded=0;strokeWidth=1.5;strokeColor=#2875E2;" edge="1" parent="Duu8V3eAsz6hvKQis6q--5">
          <mxGeometry width="50" height="50" relative="1" as="geometry">
            <mxPoint x="66" y="12" as="sourcePoint" />
            <mxPoint x="66" y="52" as="targetPoint" />
          </mxGeometry>
        </mxCell>
        <mxCell id="Duu8V3eAsz6hvKQis6q--8" value="" style="aspect=fixed;sketch=0;html=1;dashed=0;whitespace=wrap;fillColor=#2875E2;strokeColor=#ffffff;points=[[0.005,0.63,0],[0.1,0.2,0],[0.9,0.2,0],[0.5,0,0],[0.995,0.63,0],[0.72,0.99,0],[0.5,1,0],[0.28,0.99,0]];shape=mxgraph.kubernetes.icon2;prIcon=c_c_m" vertex="1" parent="Duu8V3eAsz6hvKQis6q--5">
          <mxGeometry x="5" y="6" width="50" height="48" as="geometry" />
        </mxCell>
        <mxCell id="Duu8V3eAsz6hvKQis6q--9" style="edgeStyle=orthogonalEdgeStyle;rounded=0;orthogonalLoop=1;jettySize=auto;html=1;startArrow=classic;startFill=1;" edge="1" parent="1" source="Duu8V3eAsz6hvKQis6q--6" target="Duu8V3eAsz6hvKQis6q--2">
          <mxGeometry relative="1" as="geometry" />
        </mxCell>
        <mxCell id="Duu8V3eAsz6hvKQis6q--10" value="" style="group" vertex="1" connectable="0" parent="1">
          <mxGeometry x="340" y="640" width="160" height="60" as="geometry" />
        </mxCell>
        <mxCell id="Duu8V3eAsz6hvKQis6q--11" value="&lt;font color=&quot;#19498c&quot;&gt;&lt;b&gt;Scheduler&lt;/b&gt;&lt;/font&gt;" style="rounded=0;whiteSpace=wrap;html=1;strokeWidth=1.5;strokeColor=#2875E2;align=left;spacingLeft=75;" vertex="1" parent="Duu8V3eAsz6hvKQis6q--10">
          <mxGeometry width="160" height="60" as="geometry" />
        </mxCell>
        <mxCell id="Duu8V3eAsz6hvKQis6q--12" value="" style="endArrow=none;html=1;rounded=0;strokeWidth=1.5;strokeColor=#2875E2;" edge="1" parent="Duu8V3eAsz6hvKQis6q--10">
          <mxGeometry width="50" height="50" relative="1" as="geometry">
            <mxPoint x="66" y="12" as="sourcePoint" />
            <mxPoint x="66" y="52" as="targetPoint" />
          </mxGeometry>
        </mxCell>
        <mxCell id="Duu8V3eAsz6hvKQis6q--13" value="" style="aspect=fixed;sketch=0;html=1;dashed=0;whitespace=wrap;fillColor=#2875E2;strokeColor=#ffffff;points=[[0.005,0.63,0],[0.1,0.2,0],[0.9,0.2,0],[0.5,0,0],[0.995,0.63,0],[0.72,0.99,0],[0.5,1,0],[0.28,0.99,0]];shape=mxgraph.kubernetes.icon2;prIcon=c_c_m" vertex="1" parent="Duu8V3eAsz6hvKQis6q--10">
          <mxGeometry x="5" y="6" width="50" height="48" as="geometry" />
        </mxCell>
        <mxCell id="Duu8V3eAsz6hvKQis6q--14" value="" style="group" vertex="1" connectable="0" parent="1">
          <mxGeometry x="520" y="640" width="160" height="60" as="geometry" />
        </mxCell>
        <mxCell id="Duu8V3eAsz6hvKQis6q--15" value="&lt;font color=&quot;#19498c&quot;&gt;&lt;b&gt;ETCD&lt;/b&gt;&lt;/font&gt;" style="rounded=0;whiteSpace=wrap;html=1;strokeWidth=1.5;strokeColor=#2875E2;align=left;spacingLeft=75;" vertex="1" parent="Duu8V3eAsz6hvKQis6q--14">
          <mxGeometry width="160" height="60" as="geometry" />
        </mxCell>
        <mxCell id="Duu8V3eAsz6hvKQis6q--16" value="" style="endArrow=none;html=1;rounded=0;strokeWidth=1.5;strokeColor=#2875E2;" edge="1" parent="Duu8V3eAsz6hvKQis6q--14">
          <mxGeometry width="50" height="50" relative="1" as="geometry">
            <mxPoint x="66" y="12" as="sourcePoint" />
            <mxPoint x="66" y="52" as="targetPoint" />
          </mxGeometry>
        </mxCell>
        <mxCell id="Duu8V3eAsz6hvKQis6q--17" value="" style="aspect=fixed;sketch=0;html=1;dashed=0;whitespace=wrap;fillColor=#2875E2;strokeColor=#ffffff;points=[[0.005,0.63,0],[0.1,0.2,0],[0.9,0.2,0],[0.5,0,0],[0.995,0.63,0],[0.72,0.99,0],[0.5,1,0],[0.28,0.99,0]];shape=mxgraph.kubernetes.icon2;prIcon=etcd;verticalAlign=bottom;spacingBottom=-20;" vertex="1" parent="Duu8V3eAsz6hvKQis6q--14">
          <mxGeometry x="5" y="6" width="50" height="48" as="geometry" />
        </mxCell>
        <mxCell id="Duu8V3eAsz6hvKQis6q--18" style="edgeStyle=orthogonalEdgeStyle;rounded=0;orthogonalLoop=1;jettySize=auto;html=1;entryX=1;entryY=0.75;entryDx=0;entryDy=0;exitX=0.5;exitY=0;exitDx=0;exitDy=0;" edge="1" parent="1" source="Duu8V3eAsz6hvKQis6q--15" target="Duu8V3eAsz6hvKQis6q--6">
          <mxGeometry relative="1" as="geometry" />
        </mxCell>
        <mxCell id="Duu8V3eAsz6hvKQis6q--19" value="" style="group" vertex="1" connectable="0" parent="1">
          <mxGeometry x="520" y="440" width="160" height="60" as="geometry" />
        </mxCell>
        <mxCell id="Duu8V3eAsz6hvKQis6q--20" value="&lt;font color=&quot;#19498c&quot;&gt;&lt;b&gt;Controller Manager&lt;/b&gt;&lt;/font&gt;" style="rounded=0;whiteSpace=wrap;html=1;strokeWidth=1.5;strokeColor=#2875E2;align=left;spacingLeft=75;" vertex="1" parent="Duu8V3eAsz6hvKQis6q--19">
          <mxGeometry width="160" height="60" as="geometry" />
        </mxCell>
        <mxCell id="Duu8V3eAsz6hvKQis6q--21" value="" style="endArrow=none;html=1;rounded=0;strokeWidth=1.5;strokeColor=#2875E2;" edge="1" parent="Duu8V3eAsz6hvKQis6q--19">
          <mxGeometry width="50" height="50" relative="1" as="geometry">
            <mxPoint x="66" y="12" as="sourcePoint" />
            <mxPoint x="66" y="52" as="targetPoint" />
          </mxGeometry>
        </mxCell>
        <mxCell id="Duu8V3eAsz6hvKQis6q--22" value="" style="aspect=fixed;sketch=0;html=1;dashed=0;whitespace=wrap;fillColor=#2875E2;strokeColor=#ffffff;points=[[0.005,0.63,0],[0.1,0.2,0],[0.9,0.2,0],[0.5,0,0],[0.995,0.63,0],[0.72,0.99,0],[0.5,1,0],[0.28,0.99,0]];shape=mxgraph.kubernetes.icon2;prIcon=cm;spacingBottom=-20;verticalAlign=bottom;" vertex="1" parent="Duu8V3eAsz6hvKQis6q--19">
          <mxGeometry x="5" y="6" width="50" height="48" as="geometry" />
        </mxCell>
        <mxCell id="Duu8V3eAsz6hvKQis6q--23" style="edgeStyle=orthogonalEdgeStyle;rounded=0;orthogonalLoop=1;jettySize=auto;html=1;entryX=1;entryY=0.25;entryDx=0;entryDy=0;exitX=0.5;exitY=1;exitDx=0;exitDy=0;" edge="1" parent="1" source="Duu8V3eAsz6hvKQis6q--20" target="Duu8V3eAsz6hvKQis6q--6">
          <mxGeometry relative="1" as="geometry" />
        </mxCell>
        <mxCell id="Duu8V3eAsz6hvKQis6q--24" style="edgeStyle=orthogonalEdgeStyle;rounded=0;orthogonalLoop=1;jettySize=auto;html=1;entryX=0.5;entryY=1;entryDx=0;entryDy=0;" edge="1" parent="1" source="Duu8V3eAsz6hvKQis6q--11" target="Duu8V3eAsz6hvKQis6q--6">
          <mxGeometry relative="1" as="geometry" />
        </mxCell>
        <mxCell id="Duu8V3eAsz6hvKQis6q--25" value="" style="group" vertex="1" connectable="0" parent="1">
          <mxGeometry x="80" y="540" width="160" height="60" as="geometry" />
        </mxCell>
        <mxCell id="Duu8V3eAsz6hvKQis6q--26" value="&lt;font color=&quot;#19498c&quot;&gt;&lt;b&gt;kubectl&lt;/b&gt;&lt;/font&gt;" style="rounded=0;whiteSpace=wrap;html=1;strokeWidth=1.5;strokeColor=#2875E2;align=left;spacingLeft=75;" vertex="1" parent="Duu8V3eAsz6hvKQis6q--25">
          <mxGeometry width="160" height="60" as="geometry" />
        </mxCell>
        <mxCell id="Duu8V3eAsz6hvKQis6q--27" value="" style="endArrow=none;html=1;rounded=0;strokeWidth=1.5;strokeColor=#2875E2;" edge="1" parent="Duu8V3eAsz6hvKQis6q--25">
          <mxGeometry width="50" height="50" relative="1" as="geometry">
            <mxPoint x="66" y="12" as="sourcePoint" />
            <mxPoint x="66" y="52" as="targetPoint" />
          </mxGeometry>
        </mxCell>
        <mxCell id="Duu8V3eAsz6hvKQis6q--28" value="" style="aspect=fixed;sketch=0;html=1;dashed=0;whitespace=wrap;fillColor=#2875E2;strokeColor=#ffffff;points=[[0.005,0.63,0],[0.1,0.2,0],[0.9,0.2,0],[0.5,0,0],[0.995,0.63,0],[0.72,0.99,0],[0.5,1,0],[0.28,0.99,0]];shape=mxgraph.kubernetes.icon2;prIcon=c_c_m" vertex="1" parent="Duu8V3eAsz6hvKQis6q--25">
          <mxGeometry x="5" y="6" width="50" height="48" as="geometry" />
        </mxCell>
        <mxCell id="Duu8V3eAsz6hvKQis6q--29" style="edgeStyle=none;rounded=0;orthogonalLoop=1;jettySize=auto;html=1;entryX=0;entryY=0.5;entryDx=0;entryDy=0;exitX=1;exitY=0.5;exitDx=0;exitDy=0;" edge="1" parent="1" source="Duu8V3eAsz6hvKQis6q--26" target="Duu8V3eAsz6hvKQis6q--6">
          <mxGeometry relative="1" as="geometry">
            <mxPoint x="240" y="562.2222222222222" as="sourcePoint" />
          </mxGeometry>
        </mxCell>
        <mxCell id="Duu8V3eAsz6hvKQis6q--33" value="&lt;font color=&quot;#19498c&quot;&gt;Control Plane (Automatically Created)&lt;/font&gt;" style="rounded=0;whiteSpace=wrap;html=1;strokeColor=#19498C;strokeWidth=1.5;verticalAlign=top;align=left;spacingLeft=35;fontSize=14;fillColor=default;opacity=50;" vertex="1" parent="1">
          <mxGeometry x="320" y="400" width="380" height="320" as="geometry" />
        </mxCell>
        <mxCell id="Duu8V3eAsz6hvKQis6q--31" value="" style="rounded=0;whiteSpace=wrap;html=1;strokeColor=#19498C;strokeWidth=1.5;fillColor=#19498C;" vertex="1" parent="1">
          <mxGeometry x="320" y="400" width="30" height="30" as="geometry" />
        </mxCell>
        <mxCell id="Duu8V3eAsz6hvKQis6q--32" value="" style="html=1;verticalLabelPosition=bottom;align=center;labelBackgroundColor=#ffffff;verticalAlign=top;strokeWidth=2;strokeColor=#FFFFFF;shadow=0;dashed=0;shape=mxgraph.ios7.icons.cube;fillColor=none;" vertex="1" parent="1">
          <mxGeometry x="325" y="405" width="20" height="20" as="geometry" />
        </mxCell>
        <mxCell id="Duu8V3eAsz6hvKQis6q--34" value="All control plane elements are abstracted from users, and managed on the backend by Microsoft&lt;div&gt;&lt;br&gt;&lt;/div&gt;&lt;div&gt;Control plane is also free&lt;/div&gt;&lt;div&gt;&lt;br&gt;&lt;/div&gt;&lt;div&gt;Integration with Entra ID&lt;/div&gt;" style="shape=note;whiteSpace=wrap;html=1;backgroundOutline=1;darkOpacity=0.05;" vertex="1" parent="1">
          <mxGeometry x="80" y="320" width="200" height="100" as="geometry" />
        </mxCell>
        <mxCell id="Duu8V3eAsz6hvKQis6q--42" value="" style="group" vertex="1" connectable="0" parent="1">
          <mxGeometry x="80" y="780" width="160" height="60" as="geometry" />
        </mxCell>
        <mxCell id="Duu8V3eAsz6hvKQis6q--43" value="&lt;font color=&quot;#19498c&quot;&gt;&lt;b&gt;Customised Ubuntu 2019 OS&lt;/b&gt;&lt;/font&gt;" style="rounded=0;whiteSpace=wrap;html=1;strokeWidth=1.5;strokeColor=#2875E2;align=left;spacingLeft=75;" vertex="1" parent="Duu8V3eAsz6hvKQis6q--42">
          <mxGeometry width="160" height="60" as="geometry" />
        </mxCell>
        <mxCell id="Duu8V3eAsz6hvKQis6q--44" value="" style="endArrow=none;html=1;rounded=0;strokeWidth=1.5;strokeColor=#2875E2;" edge="1" parent="Duu8V3eAsz6hvKQis6q--42">
          <mxGeometry width="50" height="50" relative="1" as="geometry">
            <mxPoint x="66" y="12" as="sourcePoint" />
            <mxPoint x="66" y="52" as="targetPoint" />
          </mxGeometry>
        </mxCell>
        <mxCell id="Duu8V3eAsz6hvKQis6q--35" value="" style="image;sketch=0;aspect=fixed;html=1;points=[];align=center;fontSize=12;image=img/lib/mscae/VM_Linux.svg;" vertex="1" parent="Duu8V3eAsz6hvKQis6q--42">
          <mxGeometry x="10" y="8.5" width="46.74" height="43" as="geometry" />
        </mxCell>
        <mxCell id="Duu8V3eAsz6hvKQis6q--46" value="" style="group" vertex="1" connectable="0" parent="1">
          <mxGeometry x="80" y="880" width="160" height="60" as="geometry" />
        </mxCell>
        <mxCell id="Duu8V3eAsz6hvKQis6q--47" value="&lt;font color=&quot;#19498c&quot;&gt;&lt;b&gt;Customised Windows &lt;br&gt;2019 OS&lt;/b&gt;&lt;/font&gt;" style="rounded=0;whiteSpace=wrap;html=1;strokeWidth=1.5;strokeColor=#2875E2;align=left;spacingLeft=75;" vertex="1" parent="Duu8V3eAsz6hvKQis6q--46">
          <mxGeometry width="160" height="60" as="geometry" />
        </mxCell>
        <mxCell id="Duu8V3eAsz6hvKQis6q--48" value="" style="endArrow=none;html=1;rounded=0;strokeWidth=1.5;strokeColor=#2875E2;" edge="1" parent="Duu8V3eAsz6hvKQis6q--46">
          <mxGeometry width="50" height="50" relative="1" as="geometry">
            <mxPoint x="66" y="12" as="sourcePoint" />
            <mxPoint x="66" y="52" as="targetPoint" />
          </mxGeometry>
        </mxCell>
        <mxCell id="Duu8V3eAsz6hvKQis6q--36" value="" style="image;sketch=0;aspect=fixed;html=1;points=[];align=center;fontSize=12;image=img/lib/mscae/VirtualMachineWindows.svg;" vertex="1" parent="Duu8V3eAsz6hvKQis6q--46">
          <mxGeometry x="10" y="8.5" width="46.74" height="43" as="geometry" />
        </mxCell>
        <mxCell id="UemOiYERx17_LtKVUlRO-2" value="&lt;font color=&quot;#007fff&quot;&gt;Azure Disk&lt;/font&gt;" style="rounded=0;whiteSpace=wrap;html=1;strokeWidth=1.5;strokeColor=#007FFF;align=left;spacingLeft=55;fontStyle=1;fillColor=#FFFFFF;" vertex="1" parent="1">
          <mxGeometry x="680" y="840" width="140" height="50" as="geometry" />
        </mxCell>
        <mxCell id="UemOiYERx17_LtKVUlRO-3" value="" style="endArrow=none;html=1;rounded=0;strokeWidth=1.5;strokeColor=#007FFF;" edge="1" parent="1">
          <mxGeometry width="50" height="50" relative="1" as="geometry">
            <mxPoint x="730" y="852" as="sourcePoint" />
            <mxPoint x="730" y="880" as="targetPoint" />
          </mxGeometry>
        </mxCell>
        <mxCell id="UemOiYERx17_LtKVUlRO-6" value="" style="image;aspect=fixed;html=1;points=[];align=center;fontSize=12;image=img/lib/azure2/compute/Disks.svg;" vertex="1" parent="1">
          <mxGeometry x="690.09" y="850" width="30.54" height="30" as="geometry" />
        </mxCell>
        <mxCell id="UemOiYERx17_LtKVUlRO-7" value="&lt;font color=&quot;#007fff&quot;&gt;Azure Files&lt;/font&gt;" style="rounded=0;whiteSpace=wrap;html=1;strokeWidth=1.5;strokeColor=#007FFF;align=left;spacingLeft=55;fontStyle=1;fillColor=#FFFFFF;" vertex="1" parent="1">
          <mxGeometry x="680" y="900" width="140" height="50" as="geometry" />
        </mxCell>
        <mxCell id="UemOiYERx17_LtKVUlRO-8" value="" style="endArrow=none;html=1;rounded=0;strokeWidth=1.5;strokeColor=#007FFF;" edge="1" parent="1">
          <mxGeometry width="50" height="50" relative="1" as="geometry">
            <mxPoint x="730" y="912" as="sourcePoint" />
            <mxPoint x="730" y="940" as="targetPoint" />
          </mxGeometry>
        </mxCell>
        <mxCell id="UemOiYERx17_LtKVUlRO-5" value="" style="image;aspect=fixed;html=1;points=[];align=center;fontSize=12;image=img/lib/azure2/general/Storage_Azure_Files.svg;" vertex="1" parent="1">
          <mxGeometry x="690.36" y="912.81" width="30" height="24.38" as="geometry" />
        </mxCell>
        <mxCell id="UemOiYERx17_LtKVUlRO-15" value="Azure App Gateway" style="rounded=0;whiteSpace=wrap;html=1;" vertex="1" parent="1">
          <mxGeometry x="645.36" y="980" width="120" height="60" as="geometry" />
        </mxCell>
        <mxCell id="UemOiYERx17_LtKVUlRO-16" value="Azure Log Analytics" style="rounded=0;whiteSpace=wrap;html=1;" vertex="1" parent="1">
          <mxGeometry x="645.36" y="1050" width="120" height="60" as="geometry" />
        </mxCell>
        <mxCell id="UemOiYERx17_LtKVUlRO-17" value="Azure Security&amp;nbsp;&lt;div&gt;Center&lt;/div&gt;" style="rounded=0;whiteSpace=wrap;html=1;" vertex="1" parent="1">
          <mxGeometry x="645.36" y="1120" width="120" height="60" as="geometry" />
        </mxCell>
      </root>
    </mxGraphModel>
  </diagram>
</mxfile>
